<svg version="1.1" viewBox="0.0 0.0 922.6561679790026 313.6377952755906" fill="none" stroke="none" stroke-linecap="square" stroke-miterlimit="10" xmlns:xlink="http://www.w3.org/1999/xlink" xmlns="http://www.w3.org/2000/svg"><clipPath id="p.0"><path d="m0 0l922.6562 0l0 313.6378l-922.6562 0l0 -313.6378z" clip-rule="nonzero"/></clipPath><g clip-path="url(#p.0)"><path fill="#000000" fill-opacity="0.0" d="m0 0l922.6562 0l0 313.6378l-922.6562 0z" fill-rule="evenodd"/><path fill="#b7b7b7" d="m-1.1391076 214.04459l922.61414 0l0 99.590546l-922.61414 0z" fill-rule="evenodd"/><path fill="#000000" d="m15.235892 296.7945q0 2.609375 -1.203125 3.625q-1.203125 1.015625 -2.953125 1.015625l-2.109375 0l0 -9.1875l1.953125 0q1.9375 0 3.125 0.984375q1.1875 0.96875 1.1875 3.5625zm-1.25 0q0 -1.484375 -0.40625 -2.28125q-0.40625 -0.796875 -1.0 -1.046875q-0.59375 -0.265625 -1.375 -0.265625l-1.078125 0l0 7.296875l1.09375 0q1.1875 0 1.96875 -0.8125q0.796875 -0.828125 0.796875 -2.890625zm4.6999674 -0.484375l3.40625 0l0 0.9375l-3.40625 0l0 3.25l4.1875 0l0 0.9375l-5.34375 0l0 -9.1875l5.21875 0l-0.140625 0.96875l-3.921875 0l0 3.09375zm12.590591 -1.234375q0 1.53125 -0.953125 2.25q-0.9375 0.703125 -2.59375 0.703125l-1.1875 0l0 3.40625l-1.140625 0l0 -9.1875l2.328125 0q1.703125 0 2.625 0.71875q0.921875 0.703125 0.921875 2.109375zm-1.234375 0.015625q0 -1.0 -0.578125 -1.453125q-0.578125 -0.46875 -1.578125 -0.46875l-1.34375 0l0 3.9375l1.296875 0q1.046875 0 1.625 -0.453125q0.578125 -0.453125 0.578125 -1.5625zm6.3718414 6.34375l-1.15625 0l0 -8.1875l-2.875 0l0 -1.0l6.921875 0l-0.125 1.0l-2.765625 0l0 8.1875zm9.168716 -4.359375l-3.46875 0l0 4.359375l-1.15625 0l0 -9.1875l1.15625 0l0 3.890625l3.46875 0l0 -3.890625l1.15625 0l0 9.1875l-1.15625 0l0 -4.359375zm13.837433 -4.96875q0.84375 0 1.46875 0.34375q0.640625 0.328125 0.96875 0.90625q0.34375 0.578125 0.34375 1.3125q0 0.84375 -0.390625 1.65625q-0.390625 0.796875 -1.265625 1.75q-0.859375 0.953125 -2.453125 2.40625l4.328125 0l-0.140625 0.953125l-5.46875 0l0 -0.90625q1.796875 -1.71875 2.671875 -2.6875q0.875 -0.984375 1.203125 -1.671875q0.34375 -0.6875 0.34375 -1.46875q0 -0.765625 -0.4375 -1.203125q-0.4375 -0.453125 -1.21875 -0.453125q-0.65625 0 -1.09375 0.234375q-0.421875 0.21875 -0.875 0.75l-0.78125 -0.609375q0.546875 -0.671875 1.21875 -0.984375q0.671875 -0.328125 1.578125 -0.328125z" fill-rule="nonzero"/><path fill="#f3f3f3" d="m-1.1391076 -4.3228345l922.61414 0l0 109.480316l-922.61414 0z" fill-rule="evenodd"/><path fill="#000000" d="m15.235892 88.31686q0 2.609375 -1.203125 3.625q-1.203125 1.015625 -2.953125 1.015625l-2.109375 0l0 -9.1875l1.953125 0q1.9375 0 3.125 0.984375q1.1875 0.96875 1.1875 3.5625zm-1.25 0q0 -1.484375 -0.40625 -2.28125q-0.40625 -0.796875 -1.0 -1.046875q-0.59375 -0.265625 -1.375 -0.265625l-1.078125 0l0 7.296875l1.09375 0q1.1875 0 1.96875 -0.8125q0.796875 -0.828125 0.796875 -2.890625zm4.6999674 -0.484375l3.40625 0l0 0.9375l-3.40625 0l0 3.25l4.1875 0l0 0.9375l-5.34375 0l0 -9.1875l5.21875 0l-0.140625 0.96875l-3.921875 0l0 3.09375zm12.590591 -1.234375q0 1.53125 -0.953125 2.25q-0.9375 0.703125 -2.59375 0.703125l-1.1875 0l0 3.40625l-1.140625 0l0 -9.1875l2.328125 0q1.703125 0 2.625 0.71875q0.921875 0.703125 0.921875 2.109375zm-1.234375 0.015625q0 -1.0 -0.578125 -1.453125q-0.578125 -0.46875 -1.578125 -0.46875l-1.34375 0l0 3.9375l1.296875 0q1.046875 0 1.625 -0.453125q0.578125 -0.453125 0.578125 -1.5625zm6.3718414 6.34375l-1.15625 0l0 -8.1875l-2.875 0l0 -1.0l6.921875 0l-0.125 1.0l-2.765625 0l0 8.1875zm9.168716 -4.359375l-3.46875 0l0 4.359375l-1.15625 0l0 -9.1875l1.15625 0l0 3.890625l3.46875 0l0 -3.890625l1.15625 0l0 9.1875l-1.15625 0l0 -4.359375zm14.259308 -4.96875q1.46875 0 2.234375 1.21875q0.765625 1.21875 0.765625 3.515625q0 2.296875 -0.765625 3.515625q-0.765625 1.21875 -2.234375 1.21875q-1.46875 0 -2.234375 -1.21875q-0.765625 -1.21875 -0.765625 -3.515625q0 -2.296875 0.765625 -3.515625q0.765625 -1.21875 2.234375 -1.21875zm0 0.90625q-1.828125 0 -1.828125 3.828125q0 3.828125 1.828125 3.828125q1.828125 0 1.828125 -3.828125q0 -3.828125 -1.828125 -3.828125zm0 2.953125q0.375 0 0.625 0.265625q0.25 0.25 0.25 0.609375q0 0.375 -0.25 0.625q-0.25 0.25 -0.625 0.25q-0.375 0 -0.625 -0.25q-0.25 -0.25 -0.25 -0.625q0 -0.359375 0.25 -0.609375q0.25 -0.265625 0.625 -0.265625z" fill-rule="nonzero"/><path fill="#d9d9d9" d="m0.0065616798 104.450134l922.61414 0l0 109.480316l-922.61414 0z" fill-rule="evenodd"/><path fill="#000000" d="m16.381561 197.08983q0 2.609375 -1.203125 3.625q-1.203125 1.015625 -2.953125 1.015625l-2.109375 0l0 -9.1875l1.953125 0q1.9375 0 3.125 0.984375q1.1875 0.96875 1.1875 3.5625zm-1.25 0q0 -1.484375 -0.40625 -2.28125q-0.40625 -0.796875 -1.0 -1.046875q-0.59375 -0.265625 -1.375 -0.265625l-1.078125 0l0 7.296875l1.09375 0q1.1875 0 1.96875 -0.8125q0.796875 -0.828125 0.796875 -2.890625zm4.6999664 -0.484375l3.40625 0l0 0.9375l-3.40625 0l0 3.25l4.1875 0l0 0.9375l-5.34375 0l0 -9.1875l5.21875 0l-0.140625 0.96875l-3.921875 0l0 3.09375zm12.590591 -1.234375q0 1.53125 -0.953125 2.25q-0.9375 0.703125 -2.59375 0.703125l-1.1875 0l0 3.40625l-1.140625 0l0 -9.1875l2.328125 0q1.703125 0 2.625 0.71875q0.921875 0.703125 0.921875 2.109375zm-1.234375 0.015625q0 -1.0 -0.578125 -1.453125q-0.578125 -0.46875 -1.578125 -0.46875l-1.34375 0l0 3.9375l1.296875 0q1.046875 0 1.625 -0.453125q0.578125 -0.453125 0.578125 -1.5625zm6.3718414 6.34375l-1.15625 0l0 -8.1875l-2.875 0l0 -1.0l6.921875 0l-0.125 1.0l-2.765625 0l0 8.1875zm9.168716 -4.359375l-3.46875 0l0 4.359375l-1.15625 0l0 -9.1875l1.15625 0l0 3.890625l3.46875 0l0 -3.890625l1.15625 0l0 9.1875l-1.15625 0l0 -4.359375zm17.149933 3.453125l0 0.90625l-5.296875 0l0 -0.90625l2.265625 0l0 -7.046875l-2.09375 1.265625l-0.5 -0.796875l2.734375 -1.703125l0.984375 0l0 8.28125l1.90625 0z" fill-rule="nonzero"/><path fill="#cfe2f3" d="m462.50397 31.8852l313.98236 0l0 54.35289c-156.99115 0 -156.99115 20.70945 -313.98236 8.9427185z" fill-rule="evenodd"/><path stroke="#000000" stroke-width="1.0" stroke-linejoin="round" stroke-linecap="butt" d="m462.50397 31.8852l313.98236 0l0 54.35289c-156.99115 0 -156.99115 20.70945 -313.98236 8.9427185z" fill-rule="evenodd"/><path fill="#000000" d="m492.96658 65.98164l0 -13.359375l1.765625 0l0 5.484375l6.9375 0l0 -5.484375l1.765625 0l0 13.359375l-1.765625 0l0 -6.296875l-6.9375 0l0 6.296875l-1.765625 0zm13.441711 0l0 -13.359375l9.6562195 0l0 1.578125l-7.8749695 0l0 4.09375l7.3749695 0l0 1.5625l-7.3749695 0l0 4.546875l8.1874695 0l0 1.578125l-9.9687195 0zm12.396698 0l0 -13.359375l1.8125 0l7.015625 10.484375l0 -10.484375l1.6875 0l0 13.359375l-1.8125 0l-7.015625 -10.5l0 10.5l-1.6875 0zm13.519836 0l0 -13.359375l5.921875 0q1.78125 0 2.703125 0.359375q0.9375 0.359375 1.484375 1.28125q0.5625 0.90625 0.5625 2.015625q0 1.40625 -0.921875 2.390625q-0.921875 0.96875 -2.84375 1.234375q0.703125 0.34375 1.078125 0.671875q0.765625 0.703125 1.453125 1.765625l2.328125 3.640625l-2.21875 0l-1.765625 -2.78125q-0.78125 -1.203125 -1.28125 -1.828125q-0.5 -0.640625 -0.90625 -0.890625q-0.390625 -0.265625 -0.796875 -0.359375q-0.296875 -0.078125 -0.984375 -0.078125l-2.046875 0l0 5.9375l-1.765625 0zm1.765625 -7.453125l3.796875 0q1.21875 0 1.890625 -0.25q0.6875 -0.265625 1.046875 -0.8125q0.359375 -0.546875 0.359375 -1.1875q0 -0.953125 -0.6875 -1.5625q-0.6875 -0.609375 -2.1875 -0.609375l-4.21875 0l0 4.421875zm15.104431 7.453125l0 -5.65625l-5.15625 -7.703125l2.15625 0l2.640625 4.03125q0.71875 1.125 1.34375 2.265625q0.609375 -1.046875 1.46875 -2.359375l2.578125 -3.9375l2.0625 0l-5.328125 7.703125l0 5.65625l-1.765625 0zm15.852173 0l-3.53125 -13.359375l1.8125 0l2.03125 8.765625q0.328125 1.375 0.5625 2.71875q0.5 -2.140625 0.59375 -2.46875l2.546875 -9.015625l2.125 0l1.921875 6.765625q0.71875 2.515625 1.03125 4.71875q0.265625 -1.265625 0.671875 -2.890625l2.09375 -8.59375l1.78125 0l-3.671875 13.359375l-1.703125 0l-2.8125 -10.171875q-0.359375 -1.28125 -0.421875 -1.5625q-0.203125 0.90625 -0.390625 1.5625l-2.828125 10.171875l-1.8125 0zm13.11908 0l5.125 -13.359375l1.90625 0l5.46875 13.359375l-2.015625 0l-1.546875 -4.046875l-5.59375 0l-1.46875 4.046875l-1.875 0zm3.859375 -5.484375l4.53125 0l-1.40625 -3.703125q-0.625 -1.6875 -0.9375 -2.765625q-0.265625 1.28125 -0.71875 2.546875l-1.46875 3.921875zm9.9747925 5.484375l0 -13.359375l1.78125 0l0 11.78125l6.5625 0l0 1.578125l-8.34375 0zm12.47467 0l0 -11.78125l-4.40625 0l0 -1.578125l10.578125 0l0 1.578125l-4.40625 0l0 11.78125l-1.765625 0zm7.121277 -6.5q0 -3.328125 1.78125 -5.203125q1.78125 -1.890625 4.609375 -1.890625q1.84375 0 3.328125 0.890625q1.484375 0.875 2.265625 2.46875q0.78125 1.578125 0.78125 3.578125q0 2.03125 -0.828125 3.640625q-0.8125 1.59375 -2.3125 2.421875q-1.5 0.828125 -3.25 0.828125q-1.875 0 -3.359375 -0.90625q-1.484375 -0.921875 -2.25 -2.5q-0.765625 -1.578125 -0.765625 -3.328125zm1.8125 0.015625q0 2.421875 1.296875 3.8125q1.296875 1.390625 3.265625 1.390625q2.0 0 3.28125 -1.40625q1.28125 -1.40625 1.28125 -3.984375q0 -1.625 -0.546875 -2.84375q-0.546875 -1.21875 -1.609375 -1.875q-1.0625 -0.671875 -2.375 -0.671875q-1.890625 0 -3.25 1.296875q-1.34375 1.28125 -1.34375 4.28125zm13.214539 6.484375l0 -13.359375l1.8125 0l7.015625 10.484375l0 -10.484375l1.6875 0l0 13.359375l-1.8125 0l-7.015625 -10.5l0 10.5l-1.6875 0zm17.765625 -3.796875l1.59375 -0.21875q0.078125 1.53125 0.578125 2.109375q0.515625 0.5625 1.421875 0.5625q0.65625 0 1.140625 -0.296875q0.484375 -0.3125 0.65625 -0.828125q0.1875 -0.53125 0.1875 -1.6875l0 -9.203125l1.765625 0l0 9.109375q0 1.671875 -0.40625 2.59375q-0.40625 0.921875 -1.28125 1.40625q-0.875 0.484375 -2.0625 0.484375q-1.75 0 -2.6875 -1.015625q-0.9375 -1.015625 -0.90625 -3.015625zm9.703125 -2.703125q0 -3.328125 1.78125 -5.203125q1.78125 -1.890625 4.609375 -1.890625q1.84375 0 3.328125 0.890625q1.484375 0.875 2.265625 2.46875q0.78125 1.578125 0.78125 3.578125q0 2.03125 -0.828125 3.640625q-0.8125 1.59375 -2.3125 2.421875q-1.5 0.828125 -3.25 0.828125q-1.875 0 -3.359375 -0.90625q-1.484375 -0.921875 -2.25 -2.5q-0.765625 -1.578125 -0.765625 -3.328125zm1.8125 0.015625q0 2.421875 1.296875 3.8125q1.296875 1.390625 3.265625 1.390625q2.0 0 3.28125 -1.40625q1.28125 -1.40625 1.28125 -3.984375q0 -1.625 -0.546875 -2.84375q-0.546875 -1.21875 -1.609375 -1.875q-1.0625 -0.671875 -2.375 -0.671875q-1.890625 0 -3.25 1.296875q-1.34375 1.28125 -1.34375 4.28125zm13.214539 6.484375l0 -13.359375l1.8125 0l7.015625 10.484375l0 -10.484375l1.6875 0l0 13.359375l-1.8125 0l-7.015625 -10.5l0 10.5l-1.6875 0zm13.519836 0l0 -13.359375l9.65625 0l0 1.578125l-7.875 0l0 4.09375l7.375 0l0 1.5625l-7.375 0l0 4.546875l8.1875 0l0 1.578125l-9.96875 0zm11.8185425 -4.296875l1.65625 -0.140625q0.125 1.0 0.546875 1.640625q0.4375 0.640625 1.34375 1.046875q0.921875 0.390625 2.0625 0.390625q1.0 0 1.78125 -0.296875q0.78125 -0.296875 1.15625 -0.8125q0.375 -0.53125 0.375 -1.15625q0 -0.625 -0.375 -1.09375q-0.359375 -0.46875 -1.1875 -0.796875q-0.546875 -0.203125 -2.390625 -0.640625q-1.828125 -0.453125 -2.5625 -0.84375q-0.96875 -0.5 -1.4375 -1.234375q-0.46875 -0.75 -0.46875 -1.671875q0 -1.0 0.578125 -1.875q0.578125 -0.890625 1.671875 -1.34375q1.109375 -0.453125 2.453125 -0.453125q1.484375 0 2.609375 0.484375q1.140625 0.46875 1.75 1.40625q0.609375 0.921875 0.65625 2.09375l-1.6875 0.125q-0.140625 -1.265625 -0.9375 -1.90625q-0.78125 -0.65625 -2.3125 -0.65625q-1.609375 0 -2.34375 0.59375q-0.734375 0.59375 -0.734375 1.421875q0 0.71875 0.53125 1.171875q0.5 0.46875 2.65625 0.96875q2.15625 0.484375 2.953125 0.84375q1.171875 0.53125 1.71875 1.359375q0.5625 0.828125 0.5625 1.90625q0 1.0625 -0.609375 2.015625q-0.609375 0.9375 -1.75 1.46875q-1.140625 0.515625 -2.578125 0.515625q-1.8125 0 -3.046875 -0.53125q-1.21875 -0.53125 -1.921875 -1.59375q-0.6875 -1.0625 -0.71875 -2.40625zm13.2561035 4.296875l0 -1.875l1.875 0l0 1.875q0 1.03125 -0.375 1.65625q-0.359375 0.640625 -1.15625 0.984375l-0.453125 -0.703125q0.515625 -0.21875 0.765625 -0.671875q0.25 -0.4375 0.28125 -1.265625l-0.9375 0zm9.554077 -4.296875l1.65625 -0.140625q0.125 1.0 0.546875 1.640625q0.4375 0.640625 1.34375 1.046875q0.921875 0.390625 2.0625 0.390625q1.0 0 1.78125 -0.296875q0.78125 -0.296875 1.15625 -0.8125q0.375 -0.53125 0.375 -1.15625q0 -0.625 -0.375 -1.09375q-0.359375 -0.46875 -1.1875 -0.796875q-0.546875 -0.203125 -2.390625 -0.640625q-1.828125 -0.453125 -2.5625 -0.84375q-0.96875 -0.5 -1.4375 -1.234375q-0.46875 -0.75 -0.46875 -1.671875q0 -1.0 0.578125 -1.875q0.578125 -0.890625 1.671875 -1.34375q1.109375 -0.453125 2.453125 -0.453125q1.484375 0 2.609375 0.484375q1.140625 0.46875 1.75 1.40625q0.609375 0.921875 0.65625 2.09375l-1.6875 0.125q-0.140625 -1.265625 -0.9375 -1.90625q-0.78125 -0.65625 -2.3125 -0.65625q-1.609375 0 -2.34375 0.59375q-0.734375 0.59375 -0.734375 1.421875q0 0.71875 0.53125 1.171875q0.5 0.46875 2.65625 0.96875q2.15625 0.484375 2.953125 0.84375q1.171875 0.53125 1.71875 1.359375q0.5625 0.828125 0.5625 1.90625q0 1.0625 -0.609375 2.015625q-0.609375 0.9375 -1.75 1.46875q-1.140625 0.515625 -2.578125 0.515625q-1.8125 0 -3.046875 -0.53125q-1.21875 -0.53125 -1.921875 -1.59375q-0.6875 -1.0625 -0.71875 -2.40625zm13.0686035 4.296875l0 -13.359375l5.921875 0q1.78125 0 2.703125 0.359375q0.9375 0.359375 1.484375 1.28125q0.5625 0.90625 0.5625 2.015625q0 1.40625 -0.921875 2.390625q-0.921875 0.96875 -2.84375 1.234375q0.703125 0.34375 1.078125 0.671875q0.765625 0.703125 1.453125 1.765625l2.328125 3.640625l-2.21875 0l-1.765625 -2.78125q-0.78125 -1.203125 -1.28125 -1.828125q-0.5 -0.640625 -0.90625 -0.890625q-0.390625 -0.265625 -0.796875 -0.359375q-0.296875 -0.078125 -0.984375 -0.078125l-2.046875 0l0 5.9375l-1.765625 0zm1.765625 -7.453125l3.796875 0q1.21875 0 1.890625 -0.25q0.6875 -0.265625 1.046875 -0.8125q0.359375 -0.546875 0.359375 -1.1875q0 -0.953125 -0.6875 -1.5625q-0.6875 -0.609375 -2.1875 -0.609375l-4.21875 0l0 4.421875zm11.926086 7.453125l0 -1.875l1.875 0l0 1.875l-1.875 0z" fill-rule="nonzero"/><path fill="#cfe2f3" d="m410.27954 31.8852l43.338593 0l0 40.0l-43.338593 0z" fill-rule="evenodd"/><path stroke="#000000" stroke-width="1.0" stroke-linejoin="round" stroke-linecap="butt" d="m410.27954 31.8852l43.338593 0l0 40.0l-43.338593 0z" fill-rule="evenodd"/><path fill="#000000" d="m433.7141 58.8052l-1.640625 0l0 -10.453125q-0.59375 0.5625 -1.5625 1.140625q-0.953125 0.5625 -1.71875 0.84375l0 -1.59375q1.375 -0.640625 2.40625 -1.5625q1.03125 -0.921875 1.453125 -1.78125l1.0625 0l0 13.40625z" fill-rule="nonzero"/><path fill="#cfe2f3" d="m90.25988 127.169975l313.98236 0l0 54.352898c-156.9912 0 -156.9912 20.709442 -313.98236 8.9427185z" fill-rule="evenodd"/><path stroke="#000000" stroke-width="1.0" stroke-linejoin="round" stroke-linecap="butt" d="m90.25988 127.169975l313.98236 0l0 54.352898c-156.9912 0 -156.9912 20.709442 -313.98236 8.9427185z" fill-rule="evenodd"/><path fill="#000000" d="m177.97264 161.26642l0 -13.359375l1.765625 0l0 13.359375l-1.765625 0zm4.870804 0l0 -13.359375l1.8125 0l7.015625 10.484375l0 -10.484375l1.6875 0l0 13.359375l-1.8125 0l-7.015625 -10.5l0 10.5l-1.6875 0zm13.488571 0l0 -13.359375l4.609375 0q1.546875 0 2.375 0.203125q1.140625 0.25 1.953125 0.953125q1.0625 0.890625 1.578125 2.28125q0.53125 1.390625 0.53125 3.171875q0 1.515625 -0.359375 2.703125q-0.359375 1.171875 -0.921875 1.9375q-0.546875 0.765625 -1.203125 1.21875q-0.65625 0.4375 -1.59375 0.671875q-0.9375 0.21875 -2.140625 0.21875l-4.828125 0zm1.765625 -1.578125l2.859375 0q1.3125 0 2.0625 -0.234375q0.75 -0.25 1.203125 -0.703125q0.625 -0.625 0.96875 -1.6875q0.359375 -1.0625 0.359375 -2.578125q0 -2.09375 -0.6875 -3.21875q-0.6875 -1.125 -1.671875 -1.5q-0.703125 -0.28125 -2.28125 -0.28125l-2.8125 0l0 10.203125zm12.004196 1.578125l0 -13.359375l1.765625 0l0 13.359375l-1.765625 0zm3.4176788 0l5.125 -13.359375l1.90625 0l5.46875 13.359375l-2.015625 0l-1.546875 -4.046875l-5.59375 0l-1.46875 4.046875l-1.875 0zm3.859375 -5.484375l4.53125 0l-1.40625 -3.703125q-0.625 -1.6875 -0.9375 -2.765625q-0.265625 1.28125 -0.71875 2.546875l-1.46875 3.921875zm10.037323 5.484375l0 -13.359375l1.8125 0l7.015625 10.484375l0 -10.484375l1.6875 0l0 13.359375l-1.8125 0l-7.015625 -10.5l0 10.5l-1.6875 0zm12.019806 0l5.125 -13.359375l1.90625 0l5.46875 13.359375l-2.015625 0l-1.546875 -4.046875l-5.59375 0l-1.46875 4.046875l-1.875 0zm3.859375 -5.484375l4.53125 0l-1.40625 -3.703125q-0.625 -1.6875 -0.9375 -2.765625q-0.265625 1.28125 -0.71875 2.546875l-1.46875 3.921875zm13.300064 1.6875l1.59375 -0.21875q0.078125 1.53125 0.578125 2.109375q0.515625 0.5625 1.421875 0.5625q0.65625 0 1.140625 -0.296875q0.484375 -0.3125 0.65625 -0.828125q0.1875 -0.53125 0.1875 -1.6875l0 -9.203125l1.765625 0l0 9.109375q0 1.671875 -0.40625 2.59375q-0.40625 0.921875 -1.28125 1.40625q-0.875 0.484375 -2.0625 0.484375q-1.75 0 -2.6875 -1.015625q-0.9375 -1.015625 -0.90625 -3.015625zm9.703125 -2.703125q0 -3.328125 1.78125 -5.203125q1.78125 -1.890625 4.609375 -1.890625q1.84375 0 3.328125 0.890625q1.484375 0.875 2.265625 2.46875q0.78125 1.578125 0.78125 3.578125q0 2.03125 -0.828125 3.640625q-0.8125 1.59375 -2.3125 2.421875q-1.5 0.828125 -3.25 0.828125q-1.875 0 -3.359375 -0.90625q-1.484375 -0.921875 -2.25 -2.5q-0.765625 -1.578125 -0.765625 -3.328125zm1.8125 0.015625q0 2.421875 1.296875 3.8125q1.296875 1.390625 3.265625 1.390625q2.0 0 3.28125 -1.40625q1.28125 -1.40625 1.28125 -3.984375q0 -1.625 -0.546875 -2.84375q-0.546875 -1.21875 -1.609375 -1.875q-1.0625 -0.671875 -2.375 -0.671875q-1.890625 0 -3.25 1.296875q-1.34375 1.28125 -1.34375 4.28125zm13.214569 6.484375l0 -13.359375l1.8125 0l7.015625 10.484375l0 -10.484375l1.6875 0l0 13.359375l-1.8125 0l-7.015625 -10.5l0 10.5l-1.6875 0zm13.519806 0l0 -13.359375l9.65625 0l0 1.578125l-7.875 0l0 4.09375l7.375 0l0 1.5625l-7.375 0l0 4.546875l8.1875 0l0 1.578125l-9.96875 0zm11.818573 -4.296875l1.65625 -0.140625q0.125 1.0 0.546875 1.640625q0.4375 0.640625 1.34375 1.046875q0.921875 0.390625 2.0625 0.390625q1.0 0 1.78125 -0.296875q0.78125 -0.296875 1.15625 -0.8125q0.375 -0.53125 0.375 -1.15625q0 -0.625 -0.375 -1.09375q-0.359375 -0.46875 -1.1875 -0.796875q-0.546875 -0.203125 -2.390625 -0.640625q-1.828125 -0.453125 -2.5625 -0.84375q-0.96875 -0.5 -1.4375 -1.234375q-0.46875 -0.75 -0.46875 -1.671875q0 -1.0 0.578125 -1.875q0.578125 -0.890625 1.671875 -1.34375q1.109375 -0.453125 2.453125 -0.453125q1.484375 0 2.609375 0.484375q1.140625 0.46875 1.75 1.40625q0.609375 0.921875 0.65625 2.09375l-1.6875 0.125q-0.140625 -1.265625 -0.9375 -1.90625q-0.78125 -0.65625 -2.3125 -0.65625q-1.609375 0 -2.34375 0.59375q-0.734375 0.59375 -0.734375 1.421875q0 0.71875 0.53125 1.171875q0.5 0.46875 2.65625 0.96875q2.15625 0.484375 2.953125 0.84375q1.171875 0.53125 1.71875 1.359375q0.5625 0.828125 0.5625 1.90625q0 1.0625 -0.609375 2.015625q-0.609375 0.9375 -1.75 1.46875q-1.140625 0.515625 -2.578125 0.515625q-1.8125 0 -3.046875 -0.53125q-1.21875 -0.53125 -1.921875 -1.59375q-0.6875 -1.0625 -0.71875 -2.40625z" fill-rule="nonzero"/><path fill="#cfe2f3" d="m38.035458 127.169975l43.33858 0l0 40.000008l-43.33858 0z" fill-rule="evenodd"/><path stroke="#000000" stroke-width="1.0" stroke-linejoin="round" stroke-linecap="butt" d="m38.035458 127.169975l43.33858 0l0 40.000008l-43.33858 0z" fill-rule="evenodd"/><path fill="#000000" d="m63.907516 152.51186l0 1.578125l-8.828125 0q-0.015625 -0.59375 0.1875 -1.140625q0.34375 -0.90625 1.078125 -1.78125q0.75 -0.875 2.15625 -2.015625q2.171875 -1.78125 2.9375 -2.828125q0.765625 -1.046875 0.765625 -1.96875q0 -0.984375 -0.703125 -1.640625q-0.6875 -0.671875 -1.8125 -0.671875q-1.1875 0 -1.90625 0.71875q-0.703125 0.703125 -0.703125 1.953125l-1.6875 -0.171875q0.171875 -1.890625 1.296875 -2.875q1.140625 -0.984375 3.03125 -0.984375q1.921875 0 3.046875 1.0625q1.125 1.0625 1.125 2.640625q0 0.796875 -0.328125 1.578125q-0.328125 0.78125 -1.09375 1.640625q-0.75 0.84375 -2.53125 2.34375q-1.46875 1.234375 -1.890625 1.6875q-0.421875 0.4375 -0.6875 0.875l6.546875 0z" fill-rule="nonzero"/><path fill="#cfe2f3" d="m593.6221 142.15424l313.98236 0l0 54.35289c-156.99115 0 -156.99115 20.709442 -313.98236 8.942703z" fill-rule="evenodd"/><path stroke="#000000" stroke-width="1.0" stroke-linejoin="round" stroke-linecap="butt" d="m593.6221 142.15424l313.98236 0l0 54.35289c-156.99115 0 -156.99115 20.709442 -313.98236 8.942703z" fill-rule="evenodd"/><path fill="#000000" d="m689.77203 171.9538l1.65625 -0.140625q0.125 1.0 0.546875 1.640625q0.4375 0.640625 1.34375 1.046875q0.921875 0.390625 2.0625 0.390625q1.0 0 1.78125 -0.296875q0.78125 -0.296875 1.15625 -0.8125q0.375 -0.53125 0.375 -1.15625q0 -0.625 -0.375 -1.09375q-0.359375 -0.46875 -1.1875 -0.796875q-0.546875 -0.203125 -2.390625 -0.640625q-1.828125 -0.453125 -2.5625 -0.84375q-0.96875 -0.5 -1.4375 -1.234375q-0.46875 -0.75 -0.46875 -1.671875q0 -1.0 0.578125 -1.875q0.578125 -0.890625 1.671875 -1.34375q1.109375 -0.453125 2.453125 -0.453125q1.484375 0 2.609375 0.484375q1.140625 0.46875 1.75 1.40625q0.609375 0.921875 0.65625 2.09375l-1.6875 0.125q-0.140625 -1.265625 -0.9375 -1.90625q-0.78125 -0.65625 -2.3125 -0.65625q-1.609375 0 -2.34375 0.59375q-0.734375 0.59375 -0.734375 1.421875q0 0.71875 0.53125 1.171875q0.5 0.46875 2.65625 0.96875q2.15625 0.484375 2.953125 0.84375q1.171875 0.53125 1.71875 1.359375q0.5625 0.828125 0.5625 1.90625q0 1.0625 -0.609375 2.015625q-0.609375 0.9375 -1.75 1.46875q-1.140625 0.515625 -2.578125 0.515625q-1.8125 0 -3.046875 -0.53125q-1.21875 -0.53125 -1.921875 -1.59375q-0.6875 -1.0625 -0.71875 -2.40625zm21.802979 -9.0625l1.765625 0l0 7.71875q0 2.015625 -0.453125 3.203125q-0.453125 1.1875 -1.640625 1.9375q-1.1875 0.734375 -3.125 0.734375q-1.875 0 -3.078125 -0.640625q-1.1875 -0.65625 -1.703125 -1.875q-0.5 -1.234375 -0.5 -3.359375l0 -7.71875l1.765625 0l0 7.71875q0 1.734375 0.3125 2.5625q0.328125 0.8125 1.109375 1.265625q0.796875 0.453125 1.9375 0.453125q1.953125 0 2.78125 -0.890625q0.828125 -0.890625 0.828125 -3.390625l0 -7.71875zm4.1135864 9.0625l1.65625 -0.140625q0.125 1.0 0.546875 1.640625q0.4375 0.640625 1.34375 1.046875q0.921875 0.390625 2.0625 0.390625q1.0 0 1.78125 -0.296875q0.78125 -0.296875 1.15625 -0.8125q0.375 -0.53125 0.375 -1.15625q0 -0.625 -0.375 -1.09375q-0.359375 -0.46875 -1.1875 -0.796875q-0.546875 -0.203125 -2.390625 -0.640625q-1.828125 -0.453125 -2.5625 -0.84375q-0.96875 -0.5 -1.4375 -1.234375q-0.46875 -0.75 -0.46875 -1.671875q0 -1.0 0.578125 -1.875q0.578125 -0.890625 1.671875 -1.34375q1.109375 -0.453125 2.453125 -0.453125q1.484375 0 2.609375 0.484375q1.140625 0.46875 1.75 1.40625q0.609375 0.921875 0.65625 2.09375l-1.6875 0.125q-0.140625 -1.265625 -0.9375 -1.90625q-0.78125 -0.65625 -2.3125 -0.65625q-1.609375 0 -2.34375 0.59375q-0.734375 0.59375 -0.734375 1.421875q0 0.71875 0.53125 1.171875q0.5 0.46875 2.65625 0.96875q2.15625 0.484375 2.953125 0.84375q1.171875 0.53125 1.71875 1.359375q0.5625 0.828125 0.5625 1.90625q0 1.0625 -0.609375 2.015625q-0.609375 0.9375 -1.75 1.46875q-1.140625 0.515625 -2.578125 0.515625q-1.8125 0 -3.046875 -0.53125q-1.21875 -0.53125 -1.921875 -1.59375q-0.6875 -1.0625 -0.71875 -2.40625zm13.3341675 4.296875l0 -13.359375l1.765625 0l0 13.359375l-1.765625 0zm4.9176636 0l0 -13.359375l9.65625 0l0 1.578125l-7.875 0l0 4.09375l7.375 0l0 1.5625l-7.375 0l0 4.546875l8.1875 0l0 1.578125l-9.96875 0zm16.689392 -3.796875l1.59375 -0.21875q0.078125 1.53125 0.578125 2.109375q0.515625 0.5625 1.421875 0.5625q0.65625 0 1.140625 -0.296875q0.484375 -0.3125 0.65625 -0.828125q0.1875 -0.53125 0.1875 -1.6875l0 -9.203125l1.765625 0l0 9.109375q0 1.671875 -0.40625 2.59375q-0.40625 0.921875 -1.28125 1.40625q-0.875 0.484375 -2.0625 0.484375q-1.75 0 -2.6875 -1.015625q-0.9375 -1.015625 -0.90625 -3.015625zm9.703125 -2.703125q0 -3.328125 1.78125 -5.203125q1.78125 -1.890625 4.609375 -1.890625q1.84375 0 3.328125 0.890625q1.484375 0.875 2.265625 2.46875q0.78125 1.578125 0.78125 3.578125q0 2.03125 -0.828125 3.640625q-0.8125 1.59375 -2.3125 2.421875q-1.5 0.828125 -3.25 0.828125q-1.875 0 -3.359375 -0.90625q-1.484375 -0.921875 -2.25 -2.5q-0.765625 -1.578125 -0.765625 -3.328125zm1.8125 0.015625q0 2.421875 1.296875 3.8125q1.296875 1.390625 3.265625 1.390625q2.0 0 3.28125 -1.40625q1.28125 -1.40625 1.28125 -3.984375q0 -1.625 -0.546875 -2.84375q-0.546875 -1.21875 -1.609375 -1.875q-1.0625 -0.671875 -2.375 -0.671875q-1.890625 0 -3.25 1.296875q-1.34375 1.28125 -1.34375 4.28125zm13.214539 6.484375l0 -13.359375l1.8125 0l7.015625 10.484375l0 -10.484375l1.6875 0l0 13.359375l-1.8125 0l-7.015625 -10.5l0 10.5l-1.6875 0zm13.519836 0l0 -13.359375l9.65625 0l0 1.578125l-7.875 0l0 4.09375l7.375 0l0 1.5625l-7.375 0l0 4.546875l8.1875 0l0 1.578125l-9.96875 0zm11.8186035 -4.296875l1.65625 -0.140625q0.125 1.0 0.546875 1.640625q0.4375 0.640625 1.34375 1.046875q0.921875 0.390625 2.0625 0.390625q1.0 0 1.78125 -0.296875q0.78125 -0.296875 1.15625 -0.8125q0.375 -0.53125 0.375 -1.15625q0 -0.625 -0.375 -1.09375q-0.359375 -0.46875 -1.1875 -0.796875q-0.546875 -0.203125 -2.390625 -0.640625q-1.828125 -0.453125 -2.5625 -0.84375q-0.96875 -0.5 -1.4375 -1.234375q-0.46875 -0.75 -0.46875 -1.671875q0 -1.0 0.578125 -1.875q0.578125 -0.890625 1.671875 -1.34375q1.109375 -0.453125 2.453125 -0.453125q1.484375 0 2.609375 0.484375q1.140625 0.46875 1.75 1.40625q0.609375 0.921875 0.65625 2.09375l-1.6875 0.125q-0.140625 -1.265625 -0.9375 -1.90625q-0.78125 -0.65625 -2.3125 -0.65625q-1.609375 0 -2.34375 0.59375q-0.734375 0.59375 -0.734375 1.421875q0 0.71875 0.53125 1.171875q0.5 0.46875 2.65625 0.96875q2.15625 0.484375 2.953125 0.84375q1.171875 0.53125 1.71875 1.359375q0.5625 0.828125 0.5625 1.90625q0 1.0625 -0.609375 2.015625q-0.609375 0.9375 -1.75 1.46875q-1.140625 0.515625 -2.578125 0.515625q-1.8125 0 -3.046875 -0.53125q-1.21875 -0.53125 -1.921875 -1.59375q-0.6875 -1.0625 -0.71875 -2.40625z" fill-rule="nonzero"/><path fill="#cfe2f3" d="m541.39764 142.15424l43.338623 0l0 40.0l-43.338623 0z" fill-rule="evenodd"/><path stroke="#000000" stroke-width="1.0" stroke-linejoin="round" stroke-linecap="butt" d="m541.39764 142.15424l43.338623 0l0 40.0l-43.338623 0z" fill-rule="evenodd"/><path fill="#000000" d="m558.66034 165.54298l1.640625 -0.21875q0.28125 1.40625 0.953125 2.015625q0.6875 0.609375 1.65625 0.609375q1.15625 0 1.953125 -0.796875q0.796875 -0.796875 0.796875 -1.984375q0 -1.125 -0.734375 -1.859375q-0.734375 -0.734375 -1.875 -0.734375q-0.46875 0 -1.15625 0.171875l0.1875 -1.4375q0.15625 0.015625 0.265625 0.015625q1.046875 0 1.875 -0.546875q0.84375 -0.546875 0.84375 -1.671875q0 -0.90625 -0.609375 -1.5q-0.609375 -0.59375 -1.578125 -0.59375q-0.953125 0 -1.59375 0.609375q-0.640625 0.59375 -0.8125 1.796875l-1.640625 -0.296875q0.296875 -1.640625 1.359375 -2.546875q1.0625 -0.90625 2.65625 -0.90625q1.09375 0 2.0 0.46875q0.921875 0.46875 1.40625 1.28125q0.5 0.8125 0.5 1.71875q0 0.859375 -0.46875 1.578125q-0.46875 0.703125 -1.375 1.125q1.1875 0.28125 1.84375 1.140625q0.65625 0.859375 0.65625 2.15625q0 1.734375 -1.28125 2.953125q-1.265625 1.21875 -3.21875 1.21875q-1.765625 0 -2.921875 -1.046875q-1.15625 -1.046875 -1.328125 -2.71875z" fill-rule="nonzero"/><path fill="#cfe2f3" d="m437.50003 229.95082l313.9824 0l0 54.35289c-156.99121 0 -156.99121 20.709442 -313.9824 8.9427185z" fill-rule="evenodd"/><path stroke="#000000" stroke-width="1.0" stroke-linejoin="round" stroke-linecap="butt" d="m437.50003 229.95082l313.9824 0l0 54.35289c-156.99121 0 -156.99121 20.709442 -313.9824 8.9427185z" fill-rule="evenodd"/><path fill="#000000" d="m478.32925 264.04727l0 -13.35939l1.765625 0l0 5.4843903l6.9375 0l0 -5.4843903l1.765625 0l0 13.35939l-1.765625 0l0 -6.296875l-6.9375 0l0 6.296875l-1.765625 0zm13.441681 0l0 -13.35939l9.65625 0l0 1.578125l-7.875 0l0 4.0937653l7.375 0l0 1.5625l-7.375 0l0 4.546875l8.1875 0l0 1.578125l-9.96875 0zm12.396698 0l0 -13.35939l1.8125 0l7.0156555 10.48439l0 -10.48439l1.6875 0l0 13.35939l-1.8125 0l-7.0156555 -10.500015l0 10.500015l-1.6875 0zm13.519806 0l0 -13.35939l5.921875 0q1.78125 0 2.703125 0.359375q0.9375 0.359375 1.484375 1.28125q0.5625 0.90625 0.5625 2.015625q0 1.40625 -0.921875 2.3906403q-0.921875 0.96875 -2.84375 1.234375q0.703125 0.34375 1.078125 0.671875q0.765625 0.703125 1.453125 1.765625l2.328125 3.640625l-2.21875 0l-1.765625 -2.78125q-0.78125 -1.203125 -1.28125 -1.828125q-0.5 -0.640625 -0.90625 -0.890625q-0.390625 -0.265625 -0.796875 -0.359375q-0.296875 -0.078125 -0.984375 -0.078125l-2.046875 0l0 5.9375l-1.765625 0zm1.765625 -7.453125l3.796875 0q1.21875 0 1.890625 -0.25q0.6875 -0.265625 1.046875 -0.81251526q0.359375 -0.546875 0.359375 -1.1875q0 -0.953125 -0.6875 -1.5625q-0.6875 -0.609375 -2.1875 -0.609375l-4.21875 0l0 4.4218903zm15.104492 7.453125l0 -5.65625l-5.15625 -7.7031403l2.15625 0l2.640625 4.03125q0.71875 1.125 1.34375 2.2656403q0.609375 -1.0468903 1.46875 -2.3593903l2.578125 -3.9375l2.0625 0l-5.328125 7.7031403l0 5.65625l-1.765625 0zm15.852112 0l-3.53125 -13.35939l1.8125 0l2.03125 8.76564q0.328125 1.375 0.5625 2.71875q0.5 -2.140625 0.59375 -2.46875l2.546875 -9.01564l2.125 0l1.921875 6.7656403q0.71875 2.515625 1.03125 4.71875q0.265625 -1.265625 0.671875 -2.890625l2.09375 -8.593765l1.78125 0l-3.671875 13.35939l-1.703125 0l-2.8125 -10.17189q-0.359375 -1.28125 -0.421875 -1.5625q-0.203125 0.90625 -0.390625 1.5625l-2.828125 10.17189l-1.8125 0zm13.11908 0l5.125061 -13.35939l1.90625 0l5.46875 13.35939l-2.015625 0l-1.546875 -4.046875l-5.59375 0l-1.468811 4.046875l-1.875 0zm3.859436 -5.484375l4.53125 0l-1.40625 -3.7031403q-0.625 -1.6875 -0.9375 -2.765625q-0.265625 1.28125 -0.71875 2.546875l-1.46875 3.9218903zm9.9747925 5.484375l0 -13.35939l1.78125 0l0 11.781265l6.5625 0l0 1.578125l-8.34375 0zm12.47467 0l0 -11.781265l-4.40625 0l0 -1.578125l10.578125 0l0 1.578125l-4.40625 0l0 11.781265l-1.765625 0zm7.121277 -6.5q0 -3.3281403 1.78125 -5.2031403q1.78125 -1.890625 4.609375 -1.890625q1.84375 0 3.328125 0.890625q1.484375 0.875 2.265625 2.46875q0.78125 1.578125 0.78125 3.5781403q0 2.03125 -0.828125 3.640625q-0.8125 1.59375 -2.3125 2.421875q-1.5 0.828125 -3.25 0.828125q-1.875 0 -3.359375 -0.90625q-1.484375 -0.921875 -2.25 -2.5q-0.765625 -1.578125 -0.765625 -3.328125zm1.8125 0.015625q0 2.421875 1.296875 3.8125q1.296875 1.390625 3.265625 1.390625q2.0 0 3.28125 -1.40625q1.28125 -1.40625 1.28125 -3.984375q0 -1.6250153 -0.546875 -2.8437653q-0.546875 -1.21875 -1.609375 -1.875q-1.0625 -0.671875 -2.375 -0.671875q-1.890625 0 -3.25 1.296875q-1.34375 1.28125 -1.34375 4.2812653zm13.214539 6.484375l0 -13.35939l1.8125 0l7.015625 10.48439l0 -10.48439l1.6875 0l0 13.35939l-1.8125 0l-7.015625 -10.500015l0 10.500015l-1.6875 0zm17.765625 -3.796875l1.59375 -0.21875q0.078125 1.53125 0.578125 2.109375q0.515625 0.5625 1.421875 0.5625q0.65625 0 1.140625 -0.296875q0.484375 -0.3125 0.65625 -0.828125q0.1875 -0.53125 0.1875 -1.6875l0 -9.20314l1.765625 0l0 9.10939q0 1.671875 -0.40625 2.59375q-0.40625 0.921875 -1.28125 1.40625q-0.875 0.484375 -2.0625 0.484375q-1.75 0 -2.6875 -1.015625q-0.9375 -1.015625 -0.90625 -3.015625zm9.703125 -2.703125q0 -3.3281403 1.78125 -5.2031403q1.78125 -1.890625 4.609375 -1.890625q1.84375 0 3.328125 0.890625q1.484375 0.875 2.265625 2.46875q0.78125 1.578125 0.78125 3.5781403q0 2.03125 -0.828125 3.640625q-0.8125 1.59375 -2.3125 2.421875q-1.5 0.828125 -3.25 0.828125q-1.875 0 -3.359375 -0.90625q-1.484375 -0.921875 -2.25 -2.5q-0.765625 -1.578125 -0.765625 -3.328125zm1.8125 0.015625q0 2.421875 1.296875 3.8125q1.296875 1.390625 3.265625 1.390625q2.0 0 3.28125 -1.40625q1.28125 -1.40625 1.28125 -3.984375q0 -1.6250153 -0.546875 -2.8437653q-0.546875 -1.21875 -1.609375 -1.875q-1.0625 -0.671875 -2.375 -0.671875q-1.890625 0 -3.25 1.296875q-1.34375 1.28125 -1.34375 4.2812653zm13.214539 6.484375l0 -13.35939l1.8125 0l7.015625 10.48439l0 -10.48439l1.6875 0l0 13.35939l-1.8125 0l-7.015625 -10.500015l0 10.500015l-1.6875 0zm13.519836 0l0 -13.35939l9.65625 0l0 1.578125l-7.875 0l0 4.0937653l7.375 0l0 1.5625l-7.375 0l0 4.546875l8.1875 0l0 1.578125l-9.96875 0zm11.8185425 -4.296875l1.65625 -0.140625q0.125 1.0 0.546875 1.640625q0.4375 0.640625 1.34375 1.046875q0.921875 0.390625 2.0625 0.390625q1.0 0 1.78125 -0.296875q0.78125 -0.296875 1.15625 -0.8125q0.375 -0.53125 0.375 -1.15625q0 -0.625 -0.375 -1.09375q-0.359375 -0.46875 -1.1875 -0.796875q-0.546875 -0.203125 -2.390625 -0.640625q-1.828125 -0.453125 -2.5625 -0.84375q-0.96875 -0.5 -1.4375 -1.2343903q-0.46875 -0.75 -0.46875 -1.671875q0 -1.0 0.578125 -1.875q0.578125 -0.890625 1.671875 -1.34375q1.109375 -0.453125 2.453125 -0.453125q1.484375 0 2.609375 0.484375q1.140625 0.46875 1.75 1.40625q0.609375 0.921875 0.65625 2.09375l-1.6875 0.125q-0.140625 -1.265625 -0.9375 -1.90625q-0.78125 -0.65625 -2.3125 -0.65625q-1.609375 0 -2.34375 0.59375q-0.734375 0.59375 -0.734375 1.421875q0 0.71875 0.53125 1.171875q0.5 0.46875 2.65625 0.96876526q2.15625 0.484375 2.953125 0.84375q1.171875 0.53125 1.71875 1.359375q0.5625 0.828125 0.5625 1.90625q0 1.0625 -0.609375 2.015625q-0.609375 0.9375 -1.75 1.46875q-1.140625 0.515625 -2.578125 0.515625q-1.8125 0 -3.046875 -0.53125q-1.21875 -0.53125 -1.921875 -1.59375q-0.6875 -1.0625 -0.71875 -2.40625zm18.517517 4.296875l0 -13.35939l1.765625 0l0 13.35939l-1.765625 0zm5.1832886 0l0 -13.35939l1.765625 0l0 13.35939l-1.765625 0zm5.1833496 0l0 -13.35939l1.765625 0l0 13.35939l-1.765625 0z" fill-rule="nonzero"/><path fill="#cfe2f3" d="m385.2756 229.95082l43.338593 0l0 39.999985l-43.338593 0z" fill-rule="evenodd"/><path stroke="#000000" stroke-width="1.0" stroke-linejoin="round" stroke-linecap="butt" d="m385.2756 229.95082l43.338593 0l0 39.999985l-43.338593 0z" fill-rule="evenodd"/><path fill="#000000" d="m407.7883 256.87082l0 -3.203125l-5.796875 0l0 -1.5l6.09375 -8.65625l1.34375 0l0 8.65625l1.796875 0l0 1.5l-1.796875 0l0 3.203125l-1.640625 0zm0 -4.703125l0 -6.015625l-4.1875 6.015625l4.1875 0z" fill-rule="nonzero"/><path fill="#000000" fill-opacity="0.0" d="m410.27954 51.8852c-12.5000305 0 -24.778015 -11.166668 -25.000061 -22.5c-0.2220459 -11.333334 11.611816 -22.833332 23.334686 -22.5c11.722839 0.33333302 23.334686 12.5 23.334686 25.0" fill-rule="evenodd"/><path stroke="#000000" stroke-width="1.0" stroke-linejoin="round" stroke-linecap="butt" d="m410.27957 51.8852c-12.5000305 0 -24.778046 -11.166664 -25.000092 -22.5c-0.22207642 -11.333332 11.611847 -22.833332 23.334686 -22.5c5.8614197 0.16666698 11.695099 3.291667 16.063416 7.937501c2.1841736 2.322917 4.001953 5.026042 5.273773 7.9296865c0.31793213 0.7259121 0.6017456 1.4643555 0.8486328 2.2125244c0.06173706 0.18704414 0.121154785 0.37469292 0.17819214 0.5629082l0.12106323 0.41784096" fill-rule="evenodd"/><path fill="#000000" stroke="#000000" stroke-width="1.0" stroke-linecap="butt" d="m429.46414 26.17955l2.27771 4.25848l0.9924927 -4.726259z" fill-rule="evenodd"/><path fill="#000000" fill-opacity="0.0" d="m431.94885 71.8852c0 13.821106 -46.17325 20.732765 -92.346466 27.64222c-46.173218 6.9094467 -92.34645 13.816681 -92.34645 27.63337" fill-rule="evenodd"/><path stroke="#000000" stroke-width="1.0" stroke-linejoin="round" stroke-linecap="butt" d="m431.94885 71.8852c0 13.821106 -46.173218 20.732765 -92.346466 27.642212c-23.086609 3.4547272 -46.173218 6.9088974 -63.48819 11.226486c-8.657471 2.158783 -15.87204 4.5334244 -20.922241 7.231903c-1.262558 0.6746216 -2.3898315 1.369484 -3.3705597 2.0862732c-0.49035645 0.35839844 -0.9440918 0.7222748 -1.359787 1.0918427c-0.20783997 0.18478394 -0.40615845 0.37099457 -0.5948181 0.55864716l-0.02394104 0.024551392" fill-rule="evenodd"/><path fill="#000000" stroke="#000000" stroke-width="1.0" stroke-linecap="butt" d="m248.35252 121.03497l-0.46629333 4.806778l3.4469452 -3.3824768z" fill-rule="evenodd"/><path fill="#000000" fill-opacity="0.0" d="m431.94885 71.8852c0 45.133858 54.724396 90.26772 109.44879 90.26772" fill-rule="evenodd"/><path stroke="#000000" stroke-width="1.0" stroke-linejoin="round" stroke-linecap="butt" d="m431.94885 71.8852c0 22.566933 13.681122 45.133858 34.20276 62.05906c10.260834 8.462601 22.231781 15.514755 35.05783 20.451279c6.413025 2.4682617 13.039825 4.407608 19.773468 5.729889c3.3668213 0.6611328 6.760376 1.1679993 10.167297 1.5095978c0.8517456 0.08540344 1.7042847 0.16046143 2.557495 0.22502136c0.42663574 0.032287598 0.8533325 0.061935425 1.2802124 0.08895874l0.41241455 0.024810791" fill-rule="evenodd"/><path fill="#000000" stroke="#000000" stroke-width="1.0" stroke-linecap="butt" d="m535.3511 163.6248l4.585327 -1.5155182l-4.4867554 -1.7864685z" fill-rule="evenodd"/><path fill="#000000" fill-opacity="0.0" d="m38.035458 147.16998c-12.50004 0 -24.778027 -11.166672 -25.000078 -22.500008c-0.22205257 -11.333328 11.61183 -22.833328 23.334684 -22.5c11.722855 0.33333588 23.334686 12.5 23.334686 25.0" fill-rule="evenodd"/><path stroke="#000000" stroke-width="1.0" stroke-linejoin="round" stroke-linecap="butt" d="m38.035458 147.16998c-12.50004 0 -24.778027 -11.166672 -25.000078 -22.500008c-0.22205257 -11.333328 11.611828 -22.833328 23.334684 -22.5c5.8614273 0.16667175 11.695103 3.2916718 16.063412 7.9375c2.1841583 2.3229218 4.00198 5.0260468 5.273754 7.9296875c0.3179474 0.72592163 0.6017647 1.4643555 0.8486481 2.212532c0.0617218 0.1870346 0.12112808 0.3746872 0.17818832 0.5628967l0.12107086 0.41784668" fill-rule="evenodd"/><path fill="#000000" stroke="#000000" stroke-width="1.0" stroke-linecap="butt" d="m57.220047 121.464325l2.2776947 4.258484l0.99248123 -4.726265z" fill-rule="evenodd"/><path fill="#000000" fill-opacity="0.0" d="m59.70475 167.16998c0 15.695099 86.81103 23.543762 173.62204 31.390213c86.81102 7.846466 173.62206 15.69072 173.62206 31.38144" fill-rule="evenodd"/><path stroke="#000000" stroke-width="1.0" stroke-linejoin="round" stroke-linecap="butt" d="m59.70475 167.16998c0 15.695114 86.81101 23.543762 173.62204 31.390213c43.405502 3.923233 86.81102 7.8459167 119.36516 12.74913c16.27707 2.4515991 29.841309 5.1483307 39.336273 8.212845c4.7474365 1.5322571 8.477631 3.1564484 11.020905 4.887909c0.15896606 0.10821533 0.31326294 0.21684265 0.46292114 0.32591248l0.20379639 0.15116882" fill-rule="evenodd"/><path fill="#000000" stroke="#000000" stroke-width="1.0" stroke-linecap="butt" d="m402.3244 225.77718l3.836731 2.9329224l-1.0538635 -4.7129517z" fill-rule="evenodd"/><path fill="#000000" fill-opacity="0.0" d="m431.94885 71.8852c0 39.516525 -6.2519836 59.2732 -12.503937 79.03304c-6.2519836 19.759842 -12.503937 39.522858 -12.503937 79.0457" fill-rule="evenodd"/><path stroke="#000000" stroke-width="1.0" stroke-linejoin="round" stroke-linecap="butt" d="m431.94885 71.8852c0 39.516525 -6.2519836 59.2732 -12.503937 79.03304c-6.2519836 19.759842 -12.503937 39.522858 -12.503937 79.0457" fill-rule="evenodd"/><path fill="#000000" fill-opacity="0.0" d="m541.39764 162.15424c-12.5 0 -24.778015 -11.166672 -25.000061 -22.5c-0.2220459 -11.3333435 11.611816 -22.833336 23.334656 -22.500008c11.7229 0.33333588 23.334717 12.500008 23.334717 25.000008" fill-rule="evenodd"/><path stroke="#000000" stroke-width="1.0" stroke-linejoin="round" stroke-linecap="butt" d="m541.3977 162.15424c-12.500061 0 -24.778076 -11.166672 -25.000122 -22.5c-0.2220459 -11.3333435 11.611877 -22.833336 23.334717 -22.500008c5.861389 0.16667175 11.695068 3.2916718 16.063416 7.9375c2.184143 2.3229218 4.001953 5.026039 5.2737427 7.929695c0.31793213 0.7259064 0.6017456 1.4643402 0.8486328 2.2125244c0.061706543 0.18704224 0.121154785 0.37469482 0.17822266 0.5628967l0.121032715 0.41784668" fill-rule="evenodd"/><path fill="#000000" stroke="#000000" stroke-width="1.0" stroke-linecap="butt" d="m560.5823 136.44858l2.27771 4.258484l0.99243164 -4.7262573z" fill-rule="evenodd"/><path fill="#000000" fill-opacity="0.0" d="m385.2756 249.95082c-12.5000305 0 -24.778015 -11.166672 -25.000061 -22.5c-0.2220459 -11.3333435 11.611816 -22.833344 23.334686 -22.5c11.722839 0.33332825 23.334686 12.5 23.334686 25.0" fill-rule="evenodd"/><path stroke="#000000" stroke-width="1.0" stroke-linejoin="round" stroke-linecap="butt" d="m385.27563 249.9508c-12.5000305 0 -24.778046 -11.166672 -25.000092 -22.5c-0.22207642 -11.333328 11.611847 -22.833328 23.334686 -22.5c5.8614197 0.16667175 11.695099 3.2916718 16.063416 7.9375c2.1841736 2.3229218 4.001953 5.0260468 5.273773 7.9296875c0.31793213 0.7259064 0.6017456 1.4643707 0.8486328 2.2125244c0.06173706 0.18704224 0.121154785 0.37467957 0.17819214 0.5628967l0.12106323 0.41784668" fill-rule="evenodd"/><path fill="#000000" stroke="#000000" stroke-width="1.0" stroke-linecap="butt" d="m404.4602 224.24516l2.27771 4.2584686l0.9924927 -4.7262573z" fill-rule="evenodd"/><path fill="#cfe2f3" d="m782.3333 59.942257l8.186401 -8.057743l8.18634 8.057743l-8.18634 8.057743z" fill-rule="evenodd"/><path stroke="#000000" stroke-width="1.0" stroke-linejoin="round" stroke-linecap="butt" d="m782.3333 59.942257l8.186401 -8.057743l8.18634 8.057743l-8.18634 8.057743z" fill-rule="evenodd"/><path fill="#000000" fill-opacity="0.0" d="m794.02856 43.717373l411.65356 0l0 30.110233l-411.65356 0z" fill-rule="evenodd"/><path fill="#000000" d="m803.96606 64.23737l0 -8.59375l3.8125 0q1.15625 0 1.75 0.234375q0.59375 0.234375 0.953125 0.828125q0.359375 0.578125 0.359375 1.28125q0 0.921875 -0.59375 1.546875q-0.59375 0.625 -1.828125 0.796875q0.453125 0.21875 0.6875 0.421875q0.5 0.453125 0.9375 1.140625l1.5 2.34375l-1.4375 0l-1.125 -1.78125q-0.5 -0.78125 -0.828125 -1.1875q-0.3125 -0.40625 -0.578125 -0.5625q-0.25 -0.171875 -0.515625 -0.25q-0.1875 -0.03125 -0.625 -0.03125l-1.328125 0l0 3.8125l-1.140625 0zm1.140625 -4.796875l2.453125 0q0.765625 0 1.203125 -0.15625q0.453125 -0.171875 0.671875 -0.515625q0.234375 -0.359375 0.234375 -0.78125q0 -0.609375 -0.453125 -1.0q-0.4375 -0.390625 -1.390625 -0.390625l-2.71875 0l0 2.84375zm7.1660156 0.609375q0 -2.140625 1.140625 -3.34375q1.15625 -1.21875 2.96875 -1.21875q1.203125 0 2.15625 0.578125q0.953125 0.5625 1.453125 1.578125q0.5 1.015625 0.5 2.3125q0 1.296875 -0.53125 2.328125q-0.53125 1.03125 -1.5 1.5625q-0.953125 0.53125 -2.078125 0.53125q-1.21875 0 -2.171875 -0.578125q-0.953125 -0.59375 -1.453125 -1.59375q-0.484375 -1.015625 -0.484375 -2.15625zm1.171875 0.015625q0 1.5625 0.828125 2.453125q0.84375 0.890625 2.109375 0.890625q1.28125 0 2.109375 -0.890625q0.828125 -0.90625 0.828125 -2.578125q0 -1.046875 -0.359375 -1.828125q-0.34375 -0.78125 -1.03125 -1.203125q-0.6875 -0.4375 -1.53125 -0.4375q-1.203125 0 -2.078125 0.828125q-0.875 0.828125 -0.875 2.765625zm8.162109 -0.015625q0 -2.140625 1.140625 -3.34375q1.15625 -1.21875 2.96875 -1.21875q1.203125 0 2.15625 0.578125q0.953125 0.5625 1.453125 1.578125q0.5 1.015625 0.5 2.3125q0 1.296875 -0.53125 2.328125q-0.53125 1.03125 -1.5 1.5625q-0.953125 0.53125 -2.078125 0.53125q-1.21875 0 -2.171875 -0.578125q-0.953125 -0.59375 -1.453125 -1.59375q-0.484375 -1.015625 -0.484375 -2.15625zm1.171875 0.015625q0 1.5625 0.828125 2.453125q0.84375 0.890625 2.109375 0.890625q1.28125 0 2.109375 -0.890625q0.828125 -0.90625 0.828125 -2.578125q0 -1.046875 -0.359375 -1.828125q-0.34375 -0.78125 -1.03125 -1.203125q-0.6875 -0.4375 -1.53125 -0.4375q-1.203125 0 -2.078125 0.828125q-0.875 0.828125 -0.875 2.765625zm10.693359 4.171875l0 -7.578125l-2.828125 0l0 -1.015625l6.8125 0l0 1.015625l-2.84375 0l0 7.578125l-1.140625 0z" fill-rule="nonzero"/></g></svg>