<svg version="1.1" viewBox="0.0 0.0 836.1889763779527 322.62467191601047" fill="none" stroke="none" stroke-linecap="square" stroke-miterlimit="10" xmlns:xlink="http://www.w3.org/1999/xlink" xmlns="http://www.w3.org/2000/svg"><clipPath id="p.0"><path d="m0 0l836.18896 0l0 322.62466l-836.18896 0l0 -322.62466z" clip-rule="nonzero"/></clipPath><g clip-path="url(#p.0)"><path fill="#000000" fill-opacity="0.0" d="m0 0l836.18896 0l0 322.62466l-836.18896 0z" fill-rule="evenodd"/><g filter="url(#shadowFilter-p.1)"><use xlink:href="#p.1" transform="matrix(1.0 0.0 0.0 1.0 0.0 3.0)"/></g><defs><filter id="shadowFilter-p.1" filterUnits="userSpaceOnUse"><feGaussianBlur in="SourceAlpha" stdDeviation="0.5" result="blur"/><feComponentTransfer in="blur" color-interpolation-filters="sRGB"><feFuncR type="linear" slope="0" intercept="0.0"/><feFuncG type="linear" slope="0" intercept="0.0"/><feFuncB type="linear" slope="0" intercept="0.0"/><feFuncA type="linear" slope="0.21" intercept="0"/></feComponentTransfer></filter></defs><g id="p.1"><defs><linearGradient id="p.2" gradientUnits="userSpaceOnUse" gradientTransform="matrix(7.02097300496011 0.0 0.0 7.02097300496011 0.0 0.0)" spreadMethod="pad" x1="58.695367287085375" y1="1.0835133622933533" x2="58.69534392251829" y2="8.104486367214585"><stop offset="0.0" stop-color="#ffffff"/><stop offset="0.59" stop-color="#f3f3f3"/><stop offset="1.0" stop-color="#efefef"/></linearGradient></defs><path fill="url(#p.2)" d="m412.09973 7.608924l0 0c0 -6.184578E-4 5.187988E-4 -0.0011196136 0.0011291504 -0.0011196136l134.32956 0.0011196136c3.0517578E-4 0 6.1035156E-4 1.1777878E-4 7.9345703E-4 3.2806396E-4c2.4414062E-4 2.0980835E-4 3.6621094E-4 4.9448013E-4 3.6621094E-4 7.915497E-4l-0.001159668 49.29022c0 6.1798096E-4 -4.8828125E-4 0.001121521 -0.0010986328 0.001121521l-134.32959 -0.001121521l0 0c-6.1035156E-4 0 -0.0010986328 -4.9972534E-4 -0.0010986328 -0.0011177063z" fill-rule="evenodd"/><path stroke="#ffffff" stroke-width="1.0" stroke-linejoin="round" stroke-linecap="butt" d="m412.09973 7.608924l0 0c0 -6.184578E-4 5.187988E-4 -0.0011196136 0.0011291504 -0.0011196136l134.32956 0.0011196136c3.0517578E-4 0 6.1035156E-4 1.1777878E-4 7.9345703E-4 3.2806396E-4c2.4414062E-4 2.0980835E-4 3.6621094E-4 4.9448013E-4 3.6621094E-4 7.915497E-4l-0.001159668 49.29022c0 6.1798096E-4 -4.8828125E-4 0.001121521 -0.0010986328 0.001121521l-134.32959 -0.001121521l0 0c-6.1035156E-4 0 -0.0010986328 -4.9972534E-4 -0.0010986328 -0.0011177063z" fill-rule="evenodd"/><path fill="#434343" d="m446.75882 26.11209q1.203125 0 2.0625 0.3125q0.859375 0.3125 1.671875 0.9375l-0.90625 1.0625q-1.140625 -0.953125 -2.703125 -0.953125q-1.734375 0 -2.828125 1.265625q-1.09375 1.265625 -1.09375 4.000002q0 2.71875 1.0625 4.0q1.0625 1.265625 2.828125 1.265625q0.984375 0 1.671875 -0.28125q0.6875 -0.28125 1.3125 -0.78125l0.84375 1.046875q-1.4375 1.390625 -3.84375 1.390625q-1.578125 0 -2.859375 -0.765625q-1.265625 -0.78125 -2.0 -2.265625q-0.71875 -1.5 -0.71875 -3.609375q0 -2.093752 0.734375 -3.593752q0.75 -1.5 2.0 -2.265625q1.265625 -0.765625 2.765625 -0.765625zm14.834381 6.640627q0 3.0 -1.21875 4.8125q-1.21875 1.8125 -3.5 1.8125q-2.296875 0 -3.515625 -1.765625q-1.203125 -1.78125 -1.203125 -4.84375q0 -1.9531269 0.53125 -3.453127q0.546875 -1.515625 1.609375 -2.359375q1.0625 -0.84375 2.578125 -0.84375q2.28125 0 3.5 1.8125q1.21875 1.796875 1.21875 4.828127zm-1.671875 0q0 -2.625002 -0.734375 -3.953127q-0.71875 -1.328125 -2.3125 -1.328125q-1.578125 0 -2.3125 1.34375q-0.71875 1.328125 -0.71875 3.953127q0 2.625 0.734375 3.9375q0.734375 1.3125 2.296875 1.3125q1.59375 0 2.3125 -1.3125q0.734375 -1.3125 0.734375 -3.953125zm5.381256 -4.859377q0 0.125 0.109375 1.625q0.125 1.484375 0.125 3.218752l0 6.4375l-1.515625 0l0 -12.859377l2.203125 0l4.609375 11.343752l-0.03125 -0.671875q-0.1875 -2.296875 -0.1875 -4.234375l0 -6.437502l1.5 0l0 12.859377l-2.265625 0l-4.546875 -11.281252zm14.740631 11.281252l-1.625 0l0 -11.453127l-4.0 0l0 -1.40625l9.671875 0l-0.15625 1.40625l-3.890625 0l0 11.453127zm7.818756 -3.28125l-1.015625 3.28125l-1.609375 0l4.203125 -12.859377l2.046875 0l4.171875 12.859377l-1.671875 0l-1.03125 -3.28125l-5.09375 0zm4.671875 -1.34375l-2.109375 -6.843752l-2.125 6.843752l4.234375 0zm10.193756 -8.437502q1.203125 0 2.0625 0.3125q0.859375 0.3125 1.671875 0.9375l-0.90625 1.0625q-1.140625 -0.953125 -2.703125 -0.953125q-1.734375 0 -2.828125 1.265625q-1.09375 1.265625 -1.09375 4.000002q0 2.71875 1.0625 4.0q1.0625 1.265625 2.828125 1.265625q0.984375 0 1.671875 -0.28125q0.6875 -0.28125 1.3125 -0.78125l0.84375 1.046875q-1.4375 1.390625 -3.84375 1.390625q-1.578125 0 -2.859375 -0.765625q-1.265625 -0.78125 -2.0 -2.265625q-0.71875 -1.5 -0.71875 -3.609375q0 -2.093752 0.734375 -3.593752q0.75 -1.5 2.0 -2.265625q1.265625 -0.765625 2.765625 -0.765625zm10.896912 13.062502l-1.6250305 0l0 -11.453127l-4.0 0l0 -1.40625l9.6719055 0l-0.15625 1.40625l-3.890625 0l0 11.453127z" fill-rule="nonzero"/></g><g filter="url(#shadowFilter-p.3)"><use xlink:href="#p.3" transform="matrix(1.0 0.0 0.0 1.0 0.0 3.0)"/></g><defs><filter id="shadowFilter-p.3" filterUnits="userSpaceOnUse"><feGaussianBlur in="SourceAlpha" stdDeviation="0.5" result="blur"/><feComponentTransfer in="blur" color-interpolation-filters="sRGB"><feFuncR type="linear" slope="0" intercept="0.0"/><feFuncG type="linear" slope="0" intercept="0.0"/><feFuncB type="linear" slope="0" intercept="0.0"/><feFuncA type="linear" slope="0.21" intercept="0"/></feComponentTransfer></filter></defs><g id="p.3"><defs><linearGradient id="p.4" gradientUnits="userSpaceOnUse" gradientTransform="matrix(7.020973004965273 0.0 0.0 7.020973004965273 0.0 0.0)" spreadMethod="pad" x1="39.56259643663171" y1="1.0835133622925566" x2="39.56257015149374" y2="8.104486367208626"><stop offset="0.0" stop-color="#efefef"/><stop offset="0.59" stop-color="#f3f3f3"/><stop offset="1.0" stop-color="#ffffff"/></linearGradient></defs><path fill="url(#p.4)" d="m277.76904 7.608924l0 0c0 -6.184578E-4 4.8828125E-4 -0.0011196136 0.0010986328 -0.0011196136l134.32959 0.0011196136c3.0517578E-4 0 5.79834E-4 1.1777878E-4 7.9345703E-4 3.2806396E-4c2.1362305E-4 2.0980835E-4 3.3569336E-4 4.9448013E-4 3.3569336E-4 7.915497E-4l-0.0011291504 49.29022c0 6.1798096E-4 -4.8828125E-4 0.001121521 -0.0010986328 0.001121521l-134.32959 -0.001121521l0 0c-6.4086914E-4 0 -0.0011291504 -4.9972534E-4 -0.0011291504 -0.0011177063z" fill-rule="evenodd"/><path stroke="#ffffff" stroke-width="1.0" stroke-linejoin="round" stroke-linecap="butt" d="m277.76904 7.608924l0 0c0 -6.184578E-4 4.8828125E-4 -0.0011196136 0.0010986328 -0.0011196136l134.32959 0.0011196136c3.0517578E-4 0 5.79834E-4 1.1777878E-4 7.9345703E-4 3.2806396E-4c2.1362305E-4 2.0980835E-4 3.3569336E-4 4.9448013E-4 3.3569336E-4 7.915497E-4l-0.0011291504 49.29022c0 6.1798096E-4 -4.8828125E-4 0.001121521 -0.0010986328 0.001121521l-134.32959 -0.001121521l0 0c-6.4086914E-4 0 -0.0011291504 -4.9972534E-4 -0.0011291504 -0.0011177063z" fill-rule="evenodd"/><path fill="#434343" d="m310.175 35.61209q0 1.125 -0.5625 1.96875q-0.546875 0.84375 -1.625 1.328125q-1.0625 0.46875 -2.515625 0.46875q-1.390625 0 -2.546875 -0.421875q-1.140625 -0.421875 -1.96875 -1.203125l0.96875 -1.09375q0.71875 0.671875 1.578125 1.03125q0.875 0.34375 1.984375 0.34375q1.28125 0 2.140625 -0.609375q0.859375 -0.625 0.859375 -1.78125q0 -0.640625 -0.25 -1.0625q-0.25 -0.4375 -0.859375 -0.765625q-0.59375 -0.34375 -1.703125 -0.671875q-2.078125 -0.609375 -3.109375 -1.4375019q-1.03125 -0.828125 -1.03125 -2.265625q0 -0.953125 0.515625 -1.71875q0.53125 -0.765625 1.484375 -1.1875q0.953125 -0.421875 2.171875 -0.421875q1.265625 0 2.265625 0.375q1.0 0.375 1.828125 1.109375l-0.96875 1.03125q-1.328125 -1.15625 -3.078125 -1.15625q-1.109375 0 -1.84375 0.484375q-0.734375 0.484375 -0.734375 1.421875q0 0.5625 0.296875 0.953125q0.3125 0.390625 1.0 0.734375q0.6875 0.328125 1.9375 0.6875q1.8125 0.5156269 2.78125 1.3593769q0.984375 0.84375 0.984375 2.5zm5.131256 -3.625002l4.78125 0l0 1.3281269l-4.78125 0l0 4.546875l5.859375 0l0 1.3125l-7.46875 0l0 -12.859377l7.296875 0l-0.1875 1.34375l-5.5 0l0 4.328125zm17.256256 -2.046875q0 1.375 -0.859375 2.281252q-0.859375 0.90625 -2.265625 1.265625l3.8125 5.6875l-1.9375 0l-3.515625 -5.5l-1.75 0l0 5.5l-1.59375 0l0 -12.859377l3.28125 0q2.390625 0 3.609375 0.921875q1.21875 0.90625 1.21875 2.703125zm-1.71875 0q0 -1.234375 -0.703125 -1.765625q-0.703125 -0.546875 -2.21875 -0.546875l-1.875 0l0 4.781252l1.890625 0q1.4375 0 2.171875 -0.5937519q0.734375 -0.59375 0.734375 -1.875zm12.006256 -3.625l1.625 0l-4.296875 12.859377l-1.6875 0l-4.28125 -12.859377l1.734375 0l3.4375 11.015627l3.46875 -11.015627zm11.350006 1.3125l-2.84375 0l0 10.265627l2.84375 0l0 1.28125l-7.34375 0l0 -1.28125l2.859375 0l0 -10.265627l-2.859375 0l0 -1.3125l7.34375 0l0 1.3125zm8.600006 -1.515625q1.203125 0 2.0625 0.3125q0.859375 0.3125 1.671875 0.9375l-0.90625 1.0625q-1.140625 -0.953125 -2.703125 -0.953125q-1.734375 0 -2.828125 1.265625q-1.09375 1.265625 -1.09375 4.000002q0 2.71875 1.0625 4.0q1.0625 1.265625 2.828125 1.265625q0.984375 0 1.671875 -0.28125q0.6875 -0.28125 1.3125 -0.78125l0.84375 1.046875q-1.4375 1.390625 -3.84375 1.390625q-1.578125 0 -2.859375 -0.765625q-1.265625 -0.78125 -2.0 -2.265625q-0.71875 -1.5 -0.71875 -3.609375q0 -2.093752 0.734375 -3.593752q0.75 -1.5 2.0 -2.265625q1.265625 -0.765625 2.765625 -0.765625zm8.475006 5.875l4.78125 0l0 1.3281269l-4.78125 0l0 4.546875l5.859375 0l0 1.3125l-7.46875 0l0 -12.859377l7.296875 0l-0.1875 1.34375l-5.5 0l0 4.328125zm17.256256 3.625002q0 1.125 -0.5625 1.96875q-0.546875 0.84375 -1.625 1.328125q-1.0625 0.46875 -2.515625 0.46875q-1.390625 0 -2.546875 -0.421875q-1.140625 -0.421875 -1.96875 -1.203125l0.96875 -1.09375q0.71875 0.671875 1.578125 1.03125q0.875 0.34375 1.984375 0.34375q1.28125 0 2.140625 -0.609375q0.859375 -0.625 0.859375 -1.78125q0 -0.640625 -0.25 -1.0625q-0.25 -0.4375 -0.859375 -0.765625q-0.59375 -0.34375 -1.703125 -0.671875q-2.078125 -0.609375 -3.109375 -1.4375019q-1.03125 -0.828125 -1.03125 -2.265625q0 -0.953125 0.515625 -1.71875q0.53125 -0.765625 1.484375 -1.1875q0.953125 -0.421875 2.171875 -0.421875q1.265625 0 2.265625 0.375q1.0 0.375 1.828125 1.109375l-0.96875 1.03125q-1.328125 -1.15625 -3.078125 -1.15625q-1.109375 0 -1.84375 0.484375q-0.734375 0.484375 -0.734375 1.421875q0 0.5625 0.296875 0.953125q0.3125 0.390625 1.0 0.734375q0.6875 0.328125 1.9375 0.6875q1.8125 0.5156269 2.78125 1.3593769q0.984375 0.84375 0.984375 2.5z" fill-rule="nonzero"/></g><g filter="url(#shadowFilter-p.5)"><use xlink:href="#p.5" transform="matrix(1.0 0.0 0.0 1.0 0.0 3.0)"/></g><defs><filter id="shadowFilter-p.5" filterUnits="userSpaceOnUse"><feGaussianBlur in="SourceAlpha" stdDeviation="0.5" result="blur"/><feComponentTransfer in="blur" color-interpolation-filters="sRGB"><feFuncR type="linear" slope="0" intercept="0.0"/><feFuncG type="linear" slope="0" intercept="0.0"/><feFuncB type="linear" slope="0" intercept="0.0"/><feFuncA type="linear" slope="0.21" intercept="0"/></feComponentTransfer></filter></defs><g id="p.5"><defs><linearGradient id="p.6" gradientUnits="userSpaceOnUse" gradientTransform="matrix(7.020973004962615 0.0 0.0 7.020973004962615 0.0 0.0)" spreadMethod="pad" x1="20.42981828480172" y1="1.0835133622929665" x2="20.429793459949195" y2="8.104486367211694"><stop offset="0.0" stop-color="#ffffff"/><stop offset="0.59" stop-color="#f3f3f3"/><stop offset="1.0" stop-color="#efefef"/></linearGradient></defs><path fill="url(#p.6)" d="m143.43832 7.608924l0 0c0 -6.184578E-4 5.0354004E-4 -0.0011196136 0.0011138916 -0.0011196136l134.3296 0.0011196136c2.746582E-4 0 5.79834E-4 1.1777878E-4 7.6293945E-4 3.2806396E-4c2.1362305E-4 2.0980835E-4 3.3569336E-4 4.9448013E-4 3.3569336E-4 7.915497E-4l-0.0010986328 49.29022c0 6.1798096E-4 -5.187988E-4 0.001121521 -0.0011291504 0.001121521l-134.32959 -0.001121521l0 0c-6.2561035E-4 0 -0.0011291504 -4.9972534E-4 -0.0011291504 -0.0011177063z" fill-rule="evenodd"/><path stroke="#ffffff" stroke-width="1.0" stroke-linejoin="round" stroke-linecap="butt" d="m143.43832 7.608924l0 0c0 -6.184578E-4 5.0354004E-4 -0.0011196136 0.0011138916 -0.0011196136l134.3296 0.0011196136c2.746582E-4 0 5.79834E-4 1.1777878E-4 7.6293945E-4 3.2806396E-4c2.1362305E-4 2.0980835E-4 3.3569336E-4 4.9448013E-4 3.3569336E-4 7.915497E-4l-0.0010986328 49.29022c0 6.1798096E-4 -5.187988E-4 0.001121521 -0.0011291504 0.001121521l-134.32959 -0.001121521l0 0c-6.2561035E-4 0 -0.0011291504 -4.9972534E-4 -0.0011291504 -0.0011177063z" fill-rule="evenodd"/><path fill="#434343" d="m185.6193 35.89334l-1.015625 3.28125l-1.609375 0l4.203125 -12.859377l2.046875 0l4.171875 12.859377l-1.671875 0l-1.03125 -3.28125l-5.09375 0zm4.671875 -1.34375l-2.109375 -6.843752l-2.125 6.843752l4.234375 0zm13.600006 0.96875q0 1.9375 -1.390625 2.796875q-1.390625 0.859375 -3.421875 0.859375l-3.46875 0l0 -12.859377l3.171875 0q1.953125 0 3.25 0.765625q1.296875 0.75 1.296875 2.484375q0 1.15625 -0.6875 1.859375q-0.6875 0.7031269 -1.71875 0.9375019q2.96875 0.5 2.96875 3.15625zm-2.21875 -5.859377q0 -1.0625 -0.65625 -1.53125q-0.65625 -0.484375 -1.875 -0.484375l-1.90625 0l0 4.140625l2.0625 0q2.375 0 2.375 -2.125zm0.5 5.921877q0 -1.375 -0.734375 -1.90625q-0.734375 -0.546875 -2.03125 -0.546875l-2.171875 0l0 4.703125l2.125 0q1.171875 0 1.984375 -0.484375q0.828125 -0.484375 0.828125 -1.765625zm13.146881 -2.828125q0 3.0 -1.21875 4.8125q-1.21875 1.8125 -3.5 1.8125q-2.296875 0 -3.515625 -1.765625q-1.203125 -1.78125 -1.203125 -4.84375q0 -1.9531269 0.53125 -3.453127q0.546875 -1.515625 1.609375 -2.359375q1.0625 -0.84375 2.578125 -0.84375q2.28125 0 3.5 1.8125q1.21875 1.796875 1.21875 4.828127zm-1.671875 0q0 -2.625002 -0.734375 -3.953127q-0.71875 -1.328125 -2.3125 -1.328125q-1.578125 0 -2.3125 1.34375q-0.71875 1.328125 -0.71875 3.953127q0 2.625 0.734375 3.9375q0.734375 1.3125 2.296875 1.3125q1.59375 0 2.3125 -1.3125q0.734375 -1.3125 0.734375 -3.953125zm12.396881 2.265625q0 1.28125 -0.53125 2.28125q-0.53125 1.0 -1.5 1.546875q-0.953125 0.53125 -2.234375 0.53125q-1.3125 0 -2.265625 -0.546875q-0.9375 -0.546875 -1.453125 -1.53125q-0.515625 -1.0 -0.515625 -2.28125l0 -8.703127l1.625 0l0 8.750002q0 1.453125 0.671875 2.1875q0.671875 0.734375 1.9375 0.734375q1.265625 0 1.9375 -0.734375q0.6875 -0.734375 0.6875 -2.1875l0 -8.750002l1.640625 0l0 8.703127zm7.725006 4.15625l-1.625 0l0 -11.453127l-4.0 0l0 -1.40625l9.671875 0l-0.15625 1.40625l-3.890625 0l0 11.453127z" fill-rule="nonzero"/></g><g filter="url(#shadowFilter-p.7)"><use xlink:href="#p.7" transform="matrix(1.0 0.0 0.0 1.0 0.0 3.0)"/></g><defs><filter id="shadowFilter-p.7" filterUnits="userSpaceOnUse"><feGaussianBlur in="SourceAlpha" stdDeviation="0.5" result="blur"/><feComponentTransfer in="blur" color-interpolation-filters="sRGB"><feFuncR type="linear" slope="0" intercept="0.0"/><feFuncG type="linear" slope="0" intercept="0.0"/><feFuncB type="linear" slope="0" intercept="0.0"/><feFuncA type="linear" slope="0.21" intercept="0"/></feComponentTransfer></filter></defs><g id="p.7"><defs><linearGradient id="p.8" gradientUnits="userSpaceOnUse" gradientTransform="matrix(7.020973004963594 0.0 0.0 7.020973004963594 0.0 0.0)" spreadMethod="pad" x1="1.2970413194384993" y1="1.0835133622928155" x2="1.2970159469789344" y2="8.104486367210564"><stop offset="0.0" stop-color="#ffffff"/><stop offset="0.59" stop-color="#f3f3f3"/><stop offset="1.0" stop-color="#efefef"/></linearGradient></defs><path fill="url(#p.8)" d="m9.107612 7.608924l0 0c0 -6.184578E-4 5.00679E-4 -0.0011196136 0.0011196136 -0.0011196136l134.32959 0.0011196136c2.89917E-4 0 5.79834E-4 1.1777878E-4 7.9345703E-4 3.2806396E-4c1.9836426E-4 2.0980835E-4 3.2043457E-4 4.9448013E-4 3.2043457E-4 7.915497E-4l-0.0011138916 49.29022c0 6.1798096E-4 -5.0354004E-4 0.001121521 -0.0011291504 0.001121521l-134.32959 -0.001121521l0 0c-6.1798096E-4 0 -0.0011196136 -4.9972534E-4 -0.0011196136 -0.0011177063z" fill-rule="evenodd"/><path stroke="#ffffff" stroke-width="1.0" stroke-linejoin="round" stroke-linecap="butt" d="m9.107612 7.608924l0 0c0 -6.184578E-4 5.00679E-4 -0.0011196136 0.0011196136 -0.0011196136l134.32959 0.0011196136c2.89917E-4 0 5.79834E-4 1.1777878E-4 7.9345703E-4 3.2806396E-4c1.9836426E-4 2.0980835E-4 3.2043457E-4 4.9448013E-4 3.2043457E-4 7.915497E-4l-0.0011138916 49.29022c0 6.1798096E-4 -5.0354004E-4 0.001121521 -0.0011291504 0.001121521l-134.32959 -0.001121521l0 0c-6.1798096E-4 0 -0.0011196136 -4.9972534E-4 -0.0011196136 -0.0011177063z" fill-rule="evenodd"/><path fill="#434343" d="m61.90108 33.08084l-4.84375 0l0 6.09375l-1.625 0l0 -12.859377l1.625 0l0 5.4375l4.84375 0l0 -5.4375l1.625 0l0 12.859377l-1.625 0l0 -6.09375zm13.490635 -0.328125q0 3.0 -1.21875 4.8125q-1.2187576 1.8125 -3.5000076 1.8125q-2.296875 0 -3.515625 -1.765625q-1.203125 -1.78125 -1.203125 -4.84375q0 -1.9531269 0.53125 -3.453127q0.546875 -1.515625 1.609375 -2.359375q1.0625 -0.84375 2.578125 -0.84375q2.28125 0 3.5000076 1.8125q1.21875 1.796875 1.21875 4.828127zm-1.671875 0q0 -2.625002 -0.7343826 -3.953127q-0.71875 -1.328125 -2.3125 -1.328125q-1.578125 0 -2.3125 1.34375q-0.71875 1.328125 -0.71875 3.953127q0 2.625 0.734375 3.9375q0.734375 1.3125 2.296875 1.3125q1.59375 0 2.3125 -1.3125q0.7343826 -1.3125 0.7343826 -3.953125zm13.193756 6.421875l-1.578125 0l-0.390625 -6.71875q-0.109375 -1.7656269 -0.109375 -4.640627l-2.15625 9.046877l-1.625 0l-2.3125 -9.046877q0.03125 0.671875 0.03125 1.78125q0 1.71875 -0.078125 2.859377l-0.328125 6.71875l-1.53125 0l0.71875 -12.859377l2.265625 0l2.09375 8.812502l1.984375 -8.812502l2.28125 0l0.734375 12.859377zm4.506256 -7.187502l4.78125 0l0 1.3281269l-4.78125 0l0 4.546875l5.859375 0l0 1.3125l-7.46875 0l0 -12.859377l7.296875 0l-0.1875 1.34375l-5.5 0l0 4.328125z" fill-rule="nonzero"/></g><g filter="url(#shadowFilter-p.9)"><use xlink:href="#p.9" transform="matrix(1.0 0.0 0.0 1.0 0.0 3.0)"/></g><defs><filter id="shadowFilter-p.9" filterUnits="userSpaceOnUse"><feGaussianBlur in="SourceAlpha" stdDeviation="0.5" result="blur"/><feComponentTransfer in="blur" color-interpolation-filters="sRGB"><feFuncR type="linear" slope="0" intercept="0.0"/><feFuncG type="linear" slope="0" intercept="0.0"/><feFuncB type="linear" slope="0" intercept="0.0"/><feFuncA type="linear" slope="0.21" intercept="0"/></feComponentTransfer></filter></defs><g id="p.9"><path fill="#ffffff" d="m277.76904 70.6728l0 0c0 -4.023033 3.2612915 -7.2843475 7.2843323 -7.2843475l201.93524 0c1.9319458 0 3.784729 0.76745605 5.150818 2.1335373c1.3660889 1.3660812 2.133545 3.2188797 2.133545 5.1508102l0 126.62815c0 4.023041 -3.261322 7.2843475 -7.284363 7.2843475l-201.93524 0l0 0c-4.023041 0 -7.2843323 -3.2613068 -7.2843323 -7.2843475z" fill-rule="evenodd"/><path stroke="#f3f3f3" stroke-width="1.0" stroke-linejoin="round" stroke-linecap="butt" d="m277.76904 70.6728l0 0c0 -4.023033 3.2612915 -7.2843475 7.2843323 -7.2843475l201.93524 0c1.9319458 0 3.784729 0.76745605 5.150818 2.1335373c1.3660889 1.3660812 2.133545 3.2188797 2.133545 5.1508102l0 126.62815c0 4.023041 -3.261322 7.2843475 -7.284363 7.2843475l-201.93524 0l0 0c-4.023041 0 -7.2843323 -3.2613068 -7.2843323 -7.2843475z" fill-rule="evenodd"/><path fill="#434343" d="m291.43378 79.58259l1.609375 0l0 11.421875l5.875 0l-0.203125 1.4375l-7.28125 0l0 -12.859375zm11.771881 8.5q0.0625 1.609375 0.84375 2.4375q0.796875 0.828125 2.015625 0.828125q0.734375 0 1.328125 -0.21875q0.609375 -0.21875 1.296875 -0.671875l0.734375 1.046875q-0.6875 0.546875 -1.578125 0.84375q-0.890625 0.296875 -1.78125 0.296875q-2.125 0 -3.3125 -1.390625q-1.1875 -1.390625 -1.1875 -3.71875q0 -1.46875 0.515625 -2.640625q0.53125 -1.171875 1.5 -1.828125q0.96875 -0.65625 2.265625 -0.65625q1.859375 0 2.921875 1.296875q1.078125 1.296875 1.078125 3.53125q0 0.421875 -0.03125 0.84375l-6.609375 0zm2.65625 -4.390625q-1.140625 0 -1.859375 0.8125q-0.703125 0.8125 -0.796875 2.375l5.125 0q-0.03125 -1.546875 -0.6875 -2.359375q-0.640625 -0.828125 -1.78125 -0.828125zm11.756256 7.609375q1.28125 0 2.546875 -0.859375l0.75 1.03125q-0.609375 0.546875 -1.53125 0.859375q-0.90625 0.3125 -1.765625 0.3125q-2.1875 0 -3.40625 -1.359375q-1.21875 -1.375 -1.21875 -3.71875q0 -1.46875 0.546875 -2.640625q0.546875 -1.171875 1.59375 -1.84375q1.046875 -0.671875 2.484375 -0.671875q1.90625 0 3.28125 1.15625l-0.765625 1.015625q-1.28125 -0.859375 -2.53125 -0.859375q-1.328125 0 -2.125 0.984375q-0.796875 0.984375 -0.796875 2.859375q0 1.890625 0.796875 2.8125q0.796875 0.921875 2.140625 0.921875zm14.553131 0.640625q-0.515625 0.328125 -1.234375 0.515625q-0.703125 0.1875 -1.421875 0.1875q-1.546875 0 -2.421875 -0.8125q-0.875 -0.8125 -0.875 -2.140625l0 -5.84375l-2.265625 0l0 -1.234375l2.265625 0l0 -2.21875l1.5625 -0.1875l0 2.40625l3.421875 0l-0.21875 1.234375l-3.203125 0l0 5.828125q0 0.84375 0.4375 1.265625q0.453125 0.40625 1.453125 0.40625q1.0 0 1.875 -0.46875l0.625 1.0625zm4.943756 -2.359375q0 0.953125 0.390625 1.390625q0.40625 0.4375 1.265625 0.4375q0.78125 0 1.5 -0.4375q0.734375 -0.453125 1.171875 -1.125l0 -7.234375l1.5625 0l0 9.828125l-1.34375 0l-0.125 -1.328125q-0.578125 0.734375 -1.4375 1.140625q-0.84375 0.390625 -1.71875 0.390625q-1.40625 0 -2.125 -0.734375q-0.71875 -0.75 -0.71875 -2.15625l0 -7.140625l1.578125 0l0 6.96875zm16.256256 -7.171875q0.609375 0 1.390625 0.203125l-0.234375 3.328125l-1.265625 0l0 -2.09375l-0.09375 0q-2.265625 0 -3.21875 3.234375l0 4.140625l2.0 0l0 1.21875l-5.125 0l0 -1.21875l1.546875 0l0 -7.40625l-1.546875 0l0 -1.203125l2.734375 0l0.296875 2.328125q0.59375 -1.265625 1.421875 -1.890625q0.828125 -0.640625 2.09375 -0.640625zm5.803131 5.671875q0.0625 1.609375 0.84375 2.4375q0.796875 0.828125 2.015625 0.828125q0.734375 0 1.328125 -0.21875q0.609375 -0.21875 1.296875 -0.671875l0.734375 1.046875q-0.6875 0.546875 -1.578125 0.84375q-0.890625 0.296875 -1.78125 0.296875q-2.125 0 -3.3125 -1.390625q-1.1875 -1.390625 -1.1875 -3.71875q0 -1.46875 0.515625 -2.640625q0.53125 -1.171875 1.5 -1.828125q0.96875 -0.65625 2.265625 -0.65625q1.859375 0 2.921875 1.296875q1.078125 1.296875 1.078125 3.53125q0 0.421875 -0.03125 0.84375l-6.609375 0zm2.65625 -4.390625q-1.140625 0 -1.859375 0.8125q-0.703125 0.8125 -0.796875 2.375l5.125 0q-0.03125 -1.546875 -0.6875 -2.359375q-0.640625 -0.828125 -1.78125 -0.828125zm10.646881 7.671875q1.125 0 1.78125 -0.421875q0.65625 -0.4375 0.65625 -1.15625q0 -0.484375 -0.171875 -0.78125q-0.171875 -0.3125 -0.671875 -0.5625q-0.5 -0.25 -1.53125 -0.515625q-1.71875 -0.421875 -2.546875 -1.03125q-0.8125 -0.609375 -0.8125 -1.796875q0 -1.234375 1.015625 -1.953125q1.03125 -0.734375 2.71875 -0.734375q2.046875 0 3.578125 1.078125l-0.703125 1.078125q-0.625 -0.421875 -1.296875 -0.65625q-0.671875 -0.234375 -1.546875 -0.234375q-2.125 0 -2.125 1.28125q0 0.453125 0.234375 0.734375q0.234375 0.28125 0.765625 0.5q0.53125 0.203125 1.59375 0.5q1.609375 0.4375 2.390625 1.09375q0.796875 0.65625 0.796875 1.9375q0 1.46875 -1.203125 2.203125q-1.1875 0.71875 -2.921875 0.71875q-2.3125 0 -3.84375 -1.328125l0.875 -1.015625q0.609375 0.484375 1.375 0.78125q0.765625 0.28125 1.59375 0.28125z" fill-rule="nonzero"/><path fill="#434343" d="m291.43378 124.58259l1.609375 0l0 11.421867l5.875 0l-0.203125 1.4375l-7.28125 0l0 -12.859367zm14.271881 2.828125q2.046875 0 3.125 1.3749924q1.09375 1.359375 1.09375 3.734375q0 2.3125 -1.109375 3.71875q-1.109375 1.40625 -3.125 1.40625q-2.03125 0 -3.140625 -1.359375q-1.09375 -1.375 -1.09375 -3.75q0 -2.328125 1.109375 -3.71875q1.109375 -1.4062424 3.140625 -1.4062424zm0 1.2812424q-1.28125 0 -1.921875 0.953125q-0.625 0.953125 -0.625 2.890625q0 1.9375 0.625 2.890625q0.625 0.9375 1.90625 0.9375q1.296875 0 1.921875 -0.9375q0.625 -0.953125 0.625 -2.90625q0 -1.9375 -0.625 -2.875q-0.625 -0.953125 -1.90625 -0.953125zm10.803131 7.671875q1.125 0 1.78125 -0.421875q0.65625 -0.4375 0.65625 -1.15625q0 -0.484375 -0.171875 -0.78125q-0.171875 -0.3125 -0.671875 -0.5625q-0.5 -0.25 -1.53125 -0.515625q-1.71875 -0.421875 -2.546875 -1.03125q-0.8125 -0.609375 -0.8125 -1.796875q0 -1.234375 1.015625 -1.953125q1.03125 -0.7343674 2.71875 -0.7343674q2.046875 0 3.578125 1.0781174l-0.703125 1.078125q-0.625 -0.421875 -1.296875 -0.65625q-0.671875 -0.234375 -1.546875 -0.234375q-2.125 0 -2.125 1.28125q0 0.453125 0.234375 0.734375q0.234375 0.28125 0.765625 0.5q0.53125 0.203125 1.59375 0.5q1.609375 0.4375 2.390625 1.09375q0.796875 0.65625 0.796875 1.9375q0 1.46875 -1.203125 2.203125q-1.1875 0.71875 -2.921875 0.71875q-2.3125 0 -3.84375 -1.328125l0.875 -1.015625q0.609375 0.484375 1.375 0.78125q0.765625 0.28125 1.59375 0.28125zm15.662506 0.578125q-0.515625 0.328125 -1.234375 0.515625q-0.703125 0.1875 -1.421875 0.1875q-1.546875 0 -2.421875 -0.8125q-0.875 -0.8125 -0.875 -2.140625l0 -5.84375l-2.265625 0l0 -1.2343674l2.265625 0l0 -2.21875l1.5625 -0.1875l0 2.40625l3.421875 0l-0.21875 1.2343674l-3.203125 0l0 5.828125q0 0.84375 0.4375 1.265625q0.453125 0.40625 1.453125 0.40625q1.0 0 1.875 -0.46875l0.625 1.0625zm15.700012 -2.78125l-1.015625 3.28125l-1.609375 0l4.203125 -12.859367l2.046875 0l4.171875 12.859367l-1.671875 0l-1.03125 -3.28125l-5.09375 0zm4.671875 -1.34375l-2.109375 -6.8437424l-2.125 6.8437424l4.234375 0zm12.021881 -5.4062424q0.609375 0 1.390625 0.203125l-0.234375 3.3281174l-1.265625 0l0 -2.09375l-0.09375 0q-2.265625 0 -3.21875 3.234375l0 4.140625l2.0 0l0 1.21875l-5.125 0l0 -1.21875l1.546875 0l0 -7.40625l-1.546875 0l0 -1.2031174l2.734375 0l0.296875 2.3281174q0.59375 -1.265625 1.421875 -1.890625q0.828125 -0.6406174 2.09375 -0.6406174zm12.381256 9.531242q-0.515625 0.328125 -1.234375 0.515625q-0.703125 0.1875 -1.421875 0.1875q-1.546875 0 -2.421875 -0.8125q-0.875 -0.8125 -0.875 -2.140625l0 -5.84375l-2.265625 0l0 -1.2343674l2.265625 0l0 -2.21875l1.5625 -0.1875l0 2.40625l3.421875 0l-0.21875 1.2343674l-3.203125 0l0 5.828125q0 0.84375 0.4375 1.265625q0.453125 0.40625 1.453125 0.40625q1.0 0 1.875 -0.46875l0.625 1.0625zm7.100006 -13.921867q0.53125 0 0.84375 0.3125q0.3125 0.296875 0.3125 0.78125q0 0.5 -0.3125 0.8125q-0.3125 0.296875 -0.84375 0.296875q-0.5 0 -0.8125 -0.296875q-0.296875 -0.3125 -0.296875 -0.8125q0 -0.484375 0.296875 -0.78125q0.3125 -0.3125 0.8125 -0.3125zm1.25 13.171867l2.765625 0l0 1.25l-7.359375 0l0 -1.25l3.03125 0l0 -7.328125l-2.9375 0l0 -1.2499924l4.5 0l0 8.578117zm12.021881 -12.718742q1.390625 0 2.65625 0.515625l-0.5 1.171875q-0.921875 -0.40625 -2.109375 -0.40625q-2.046875 0 -2.046875 1.625l0 1.9999924l3.328125 0l-0.171875 1.25l-3.15625 0l0 7.8125l-1.59375 0l0 -7.8125l-2.328125 0l0 -1.25l2.328125 0l0 -1.9687424q0 -1.3125 1.015625 -2.125q1.03125 -0.8125 2.578125 -0.8125zm12.443756 11.828117q0 0.578125 0.1875 0.84375q0.1875 0.265625 0.609375 0.40625l-0.390625 1.109375q-1.4375 -0.1875 -1.796875 -1.390625q-0.515625 0.671875 -1.3125 1.03125q-0.796875 0.34375 -1.765625 0.34375q-1.46875 0 -2.328125 -0.8125q-0.84375 -0.828125 -0.84375 -2.203125q0 -1.515625 1.1875 -2.328125q1.1875 -0.828125 3.40625 -0.828125l1.453125 0l0 -0.796875q0 -1.046875 -0.59375 -1.5q-0.59375 -0.46875 -1.734375 -0.46875q-1.125 0 -2.5625 0.5l-0.421875 -1.1875q1.734375 -0.6093674 3.234375 -0.6093674q1.78125 0 2.71875 0.8437424q0.953125 0.828125 0.953125 2.328125l0 4.71875zm-4.078125 1.171875q0.734375 0 1.390625 -0.375q0.671875 -0.375 1.09375 -1.03125l0 -2.515625l-1.421875 0q-1.5625 0 -2.25 0.53125q-0.6875 0.515625 -0.6875 1.53125q0 1.859375 1.875 1.859375zm12.678131 -0.171875q1.28125 0 2.546875 -0.859375l0.75 1.03125q-0.609375 0.546875 -1.53125 0.859375q-0.90625 0.3125 -1.765625 0.3125q-2.1875 0 -3.40625 -1.359375q-1.21875 -1.375 -1.21875 -3.71875q0 -1.46875 0.546875 -2.640625q0.546875 -1.171875 1.59375 -1.84375q1.046875 -0.6718674 2.484375 -0.6718674q1.90625 0 3.28125 1.1562424l-0.765625 1.015625q-1.28125 -0.859375 -2.53125 -0.859375q-1.328125 0 -2.125 0.984375q-0.796875 0.984375 -0.796875 2.859375q0 1.890625 0.796875 2.8125q0.796875 0.921875 2.140625 0.921875zm14.553131 0.640625q-0.515625 0.328125 -1.234375 0.515625q-0.703125 0.1875 -1.421875 0.1875q-1.546875 0 -2.421875 -0.8125q-0.875 -0.8125 -0.875 -2.140625l0 -5.84375l-2.265625 0l0 -1.2343674l2.265625 0l0 -2.21875l1.5625 -0.1875l0 2.40625l3.421875 0l-0.21875 1.2343674l-3.203125 0l0 5.828125q0 0.84375 0.4375 1.265625q0.453125 0.40625 1.453125 0.40625q1.0 0 1.875 -0.46875l0.625 1.0625zm6.725006 -0.578125q1.125 0 1.78125 -0.421875q0.65625 -0.4375 0.65625 -1.15625q0 -0.484375 -0.171875 -0.78125q-0.171875 -0.3125 -0.671875 -0.5625q-0.5 -0.25 -1.53125 -0.515625q-1.71875 -0.421875 -2.546875 -1.03125q-0.8125 -0.609375 -0.8125 -1.796875q0 -1.234375 1.015625 -1.953125q1.03125 -0.7343674 2.71875 -0.7343674q2.046875 0 3.578125 1.0781174l-0.703125 1.078125q-0.625 -0.421875 -1.296875 -0.65625q-0.671875 -0.234375 -1.546875 -0.234375q-2.125 0 -2.125 1.28125q0 0.453125 0.234375 0.734375q0.234375 0.28125 0.765625 0.5q0.53125 0.203125 1.59375 0.5q1.609375 0.4375 2.390625 1.09375q0.796875 0.65625 0.796875 1.9375q0 1.46875 -1.203125 2.203125q-1.1875 0.71875 -2.921875 0.71875q-2.3125 0 -3.84375 -1.328125l0.875 -1.015625q0.609375 0.484375 1.375 0.78125q0.765625 0.28125 1.59375 0.28125z" fill-rule="nonzero"/><path fill="#434343" d="m298.91815 173.20758q0 1.375 -0.859375 2.28125q-0.859375 0.90625 -2.265625 1.265625l3.8125 5.6875l-1.9375 0l-3.515625 -5.5l-1.75 0l0 5.5l-1.59375 0l0 -12.859375l3.28125 0q2.390625 0 3.609375 0.921875q1.21875 0.90625 1.21875 2.703125zm-1.71875 0q0 -1.234375 -0.703125 -1.765625q-0.703125 -0.546875 -2.21875 -0.546875l-1.875 0l0 4.78125l1.890625 0q1.4375 0 2.171875 -0.59375q0.734375 -0.59375 0.734375 -1.875zm6.006256 4.875q0.0625 1.609375 0.84375 2.4375q0.796875 0.828125 2.015625 0.828125q0.734375 0 1.328125 -0.21875q0.609375 -0.21875 1.296875 -0.671875l0.734375 1.046875q-0.6875 0.546875 -1.578125 0.84375q-0.890625 0.296875 -1.78125 0.296875q-2.125 0 -3.3125 -1.390625q-1.1875 -1.390625 -1.1875 -3.71875q0 -1.46875 0.515625 -2.640625q0.53125 -1.171875 1.5 -1.828125q0.96875 -0.65625 2.265625 -0.65625q1.859375 0 2.921875 1.296875q1.078125 1.296875 1.078125 3.53125q0 0.421875 -0.03125 0.84375l-6.609375 0zm2.65625 -4.390625q-1.140625 0 -1.859375 0.8125q-0.703125 0.8125 -0.796875 2.375l5.125 0q-0.03125 -1.546875 -0.6875 -2.359375q-0.640625 -0.828125 -1.78125 -0.828125zm15.115631 8.25q-0.515625 0.328125 -1.234375 0.515625q-0.703125 0.1875 -1.421875 0.1875q-1.546875 0 -2.421875 -0.8125q-0.875 -0.8125 -0.875 -2.140625l0 -5.84375l-2.265625 0l0 -1.234375l2.265625 0l0 -2.21875l1.5625 -0.1875l0 2.40625l3.421875 0l-0.21875 1.234375l-3.203125 0l0 5.828125q0 0.84375 0.4375 1.265625q0.453125 0.40625 1.453125 0.40625q1.0 0 1.875 -0.46875l0.625 1.0625zm10.006256 -9.53125q0.609375 0 1.390625 0.203125l-0.234375 3.328125l-1.265625 0l0 -2.09375l-0.09375 0q-2.265625 0 -3.21875 3.234375l0 4.140625l2.0 0l0 1.21875l-5.125 0l0 -1.21875l1.546875 0l0 -7.40625l-1.546875 0l0 -1.203125l2.734375 0l0.296875 2.328125q0.59375 -1.265625 1.421875 -1.890625q0.828125 -0.640625 2.09375 -0.640625zm8.287506 -4.390625q0.53125 0 0.84375 0.3125q0.3125 0.296875 0.3125 0.78125q0 0.5 -0.3125 0.8125q-0.3125 0.296875 -0.84375 0.296875q-0.5 0 -0.8125 -0.296875q-0.296875 -0.3125 -0.296875 -0.8125q0 -0.484375 0.296875 -0.78125q0.3125 -0.3125 0.8125 -0.3125zm1.25 13.171875l2.765625 0l0 1.25l-7.359375 0l0 -1.25l3.03125 0l0 -7.328125l-2.9375 0l0 -1.25l4.5 0l0 8.578125zm7.459381 -3.109375q0.0625 1.609375 0.84375 2.4375q0.796875 0.828125 2.015625 0.828125q0.734375 0 1.328125 -0.21875q0.609375 -0.21875 1.296875 -0.671875l0.734375 1.046875q-0.6875 0.546875 -1.578125 0.84375q-0.890625 0.296875 -1.78125 0.296875q-2.125 0 -3.3125 -1.390625q-1.1875 -1.390625 -1.1875 -3.71875q0 -1.46875 0.515625 -2.640625q0.53125 -1.171875 1.5 -1.828125q0.96875 -0.65625 2.265625 -0.65625q1.859375 0 2.921875 1.296875q1.078125 1.296875 1.078125 3.53125q0 0.421875 -0.03125 0.84375l-6.609375 0zm2.65625 -4.390625q-1.140625 0 -1.859375 0.8125q-0.703125 0.8125 -0.796875 2.375l5.125 0q-0.03125 -1.546875 -0.6875 -2.359375q-0.640625 -0.828125 -1.78125 -0.828125zm11.928131 8.75l-1.8125 0l-3.5625 -9.828125l1.671875 0l2.84375 8.40625l2.796875 -8.40625l1.640625 0l-3.578125 9.828125zm13.615631 -2.140625q0 0.578125 0.1875 0.84375q0.1875 0.265625 0.609375 0.40625l-0.390625 1.109375q-1.4375 -0.1875 -1.796875 -1.390625q-0.515625 0.671875 -1.3125 1.03125q-0.796875 0.34375 -1.765625 0.34375q-1.46875 0 -2.328125 -0.8125q-0.84375 -0.828125 -0.84375 -2.203125q0 -1.515625 1.1875 -2.328125q1.1875 -0.828125 3.40625 -0.828125l1.453125 0l0 -0.796875q0 -1.046875 -0.59375 -1.5q-0.59375 -0.46875 -1.734375 -0.46875q-1.125 0 -2.5625 0.5l-0.421875 -1.1875q1.734375 -0.609375 3.234375 -0.609375q1.78125 0 2.71875 0.84375q0.953125 0.828125 0.953125 2.328125l0 4.71875zm-4.078125 1.171875q0.734375 0 1.390625 -0.375q0.671875 -0.375 1.09375 -1.03125l0 -2.515625l-1.421875 0q-1.5625 0 -2.25 0.53125q-0.6875 0.515625 -0.6875 1.53125q0 1.859375 1.875 1.859375zm12.053131 -1.453125q0 1.328125 1.625 1.328125q0.765625 0 1.640625 -0.34375l0.421875 1.140625q-0.9375 0.5 -2.34375 0.5q-1.3125 0 -2.109375 -0.71875q-0.796875 -0.734375 -0.796875 -1.984375l0 -10.03125l-3.015625 0l0 -1.25l4.578125 0l0 11.359375zm26.996887 -4.0q0 3.0 -1.21875 4.8125q-1.21875 1.8125 -3.5 1.8125q-2.296875 0 -3.515625 -1.765625q-1.203125 -1.78125 -1.203125 -4.84375q0 -1.953125 0.53125 -3.453125q0.546875 -1.515625 1.609375 -2.359375q1.0625 -0.84375 2.578125 -0.84375q2.28125 0 3.5 1.8125q1.21875 1.796875 1.21875 4.828125zm-1.671875 0q0 -2.625 -0.734375 -3.953125q-0.71875 -1.328125 -2.3125 -1.328125q-1.578125 0 -2.3125 1.34375q-0.71875 1.328125 -0.71875 3.953125q0 2.625 0.734375 3.9375q0.734375 1.3125 2.296875 1.3125q1.59375 0 2.3125 -1.3125q0.734375 -1.3125 0.734375 -3.953125zm8.818756 -3.609375q3.5625 0 3.5625 5.109375q0 2.328125 -0.96875 3.734375q-0.96875 1.390625 -2.8125 1.390625q-1.609375 0 -2.609375 -1.125l0 4.6875l-1.578125 0.1875l0 -13.78125l1.34375 0l0.140625 1.375q0.53125 -0.765625 1.28125 -1.171875q0.765625 -0.40625 1.640625 -0.40625zm-0.375 1.265625q-0.734375 0 -1.359375 0.453125q-0.625 0.4375 -1.09375 1.109375l0 4.875q0.390625 0.578125 0.96875 0.90625q0.59375 0.328125 1.28125 0.328125q1.234375 0 1.84375 -0.9375q0.609375 -0.953125 0.609375 -2.890625q0 -1.9375 -0.546875 -2.890625q-0.546875 -0.953125 -1.703125 -0.953125zm10.521881 7.6875q1.125 0 1.78125 -0.421875q0.65625 -0.4375 0.65625 -1.15625q0 -0.484375 -0.171875 -0.78125q-0.171875 -0.3125 -0.671875 -0.5625q-0.5 -0.25 -1.53125 -0.515625q-1.71875 -0.421875 -2.546875 -1.03125q-0.8125 -0.609375 -0.8125 -1.796875q0 -1.234375 1.015625 -1.953125q1.03125 -0.734375 2.71875 -0.734375q2.046875 0 3.578125 1.078125l-0.703125 1.078125q-0.625 -0.421875 -1.296875 -0.65625q-0.671875 -0.234375 -1.546875 -0.234375q-2.125 0 -2.125 1.28125q0 0.453125 0.234375 0.734375q0.234375 0.28125 0.765625 0.5q0.53125 0.203125 1.59375 0.5q1.609375 0.4375 2.390625 1.09375q0.796875 0.65625 0.796875 1.9375q0 1.46875 -1.203125 2.203125q-1.1875 0.71875 -2.921875 0.71875q-2.3125 0 -3.84375 -1.328125l0.875 -1.015625q0.609375 0.484375 1.375 0.78125q0.765625 0.28125 1.59375 0.28125z" fill-rule="nonzero"/></g><g filter="url(#shadowFilter-p.10)"><use xlink:href="#p.10" transform="matrix(1.0 0.0 0.0 1.0 0.0 3.0)"/></g><defs><filter id="shadowFilter-p.10" filterUnits="userSpaceOnUse"><feGaussianBlur in="SourceAlpha" stdDeviation="0.5" result="blur"/><feComponentTransfer in="blur" color-interpolation-filters="sRGB"><feFuncR type="linear" slope="0" intercept="0.0"/><feFuncG type="linear" slope="0" intercept="0.0"/><feFuncB type="linear" slope="0" intercept="0.0"/><feFuncA type="linear" slope="0.21" intercept="0"/></feComponentTransfer></filter></defs><g id="p.10"><path fill="#ffffff" d="m502.63254 127.85577l0 0c0 -5.298233 4.2950745 -9.5933 9.593292 -9.5933l299.963 0c2.5443115 0 4.984375 1.0107193 6.7835083 2.8098145c1.7990723 1.7990952 2.8098145 4.239189 2.8098145 6.7834854l0 166.76614c0 5.2982483 -4.295105 9.593292 -9.593323 9.593292l-299.963 0c-5.298218 0 -9.593292 -4.295044 -9.593292 -9.593292z" fill-rule="evenodd"/><path stroke="#f3f3f3" stroke-width="1.0" stroke-linejoin="round" stroke-linecap="butt" d="m502.63254 127.85577l0 0c0 -5.298233 4.2950745 -9.5933 9.593292 -9.5933l299.963 0c2.5443115 0 4.984375 1.0107193 6.7835083 2.8098145c1.7990723 1.7990952 2.8098145 4.239189 2.8098145 6.7834854l0 166.76614c0 5.2982483 -4.295105 9.593292 -9.593323 9.593292l-299.963 0c-5.298218 0 -9.593292 -4.295044 -9.593292 -9.593292z" fill-rule="evenodd"/><path fill="#434343" d="m517.4423 144.711l-1.015625 3.28125l-1.609375 0l4.203125 -12.859375l2.046875 0l4.171875 12.859375l-1.671875 0l-1.03125 -3.28125l-5.09375 0zm4.671875 -1.34375l-2.109375 -6.84375l-2.125 6.84375l4.234375 0zm12.021912 -5.40625q0.609375 0 1.390625 0.203125l-0.234375 3.328125l-1.265625 0l0 -2.09375l-0.09375 0q-2.265625 0 -3.21875 3.234375l0 4.140625l2.0 0l0 1.21875l-5.125 0l0 -1.21875l1.546875 0l0 -7.40625l-1.546875 0l0 -1.203125l2.734375 0l0.296875 2.328125q0.59375 -1.265625 1.421875 -1.890625q0.828125 -0.640625 2.09375 -0.640625zm6.2406006 10.03125l-1.5625 0l0 -13.78125l1.5625 -0.1875l0 13.96875zm2.140625 -5.390625l4.921875 5.390625l-2.0625 0l-4.828125 -5.375l4.359375 -4.453125l2.015625 0l-4.40625 4.4375zm22.309387 -4.640625q2.046875 0 3.125 1.375q1.09375 1.359375 1.09375 3.734375q0 2.3125 -1.109375 3.71875q-1.109375 1.40625 -3.125 1.40625q-2.03125 0 -3.140625 -1.359375q-1.09375 -1.375 -1.09375 -3.75q0 -2.328125 1.109375 -3.71875q1.109375 -1.40625 3.140625 -1.40625zm0 1.28125q-1.28125 0 -1.921875 0.953125q-0.625 0.953125 -0.625 2.890625q0 1.9375 0.625 2.890625q0.625 0.9375 1.90625 0.9375q1.296875 0 1.921875 -0.9375q0.625 -0.953125 0.625 -2.90625q0 -1.9375 -0.625 -2.875q-0.625 -0.953125 -1.90625 -0.953125zm13.256287 -5.21875q1.390625 0 2.65625 0.515625l-0.5 1.171875q-0.921875 -0.40625 -2.109375 -0.40625q-2.046875 0 -2.046875 1.625l0 2.0l3.328125 0l-0.171875 1.25l-3.15625 0l0 7.8125l-1.59375 0l0 -7.8125l-2.328125 0l0 -1.25l2.328125 0l0 -1.96875q0 -1.3125 1.015625 -2.125q1.03125 -0.8125 2.578125 -0.8125zm24.403137 13.46875q-0.515625 0.328125 -1.234375 0.515625q-0.703125 0.1875 -1.421875 0.1875q-1.546875 0 -2.421875 -0.8125q-0.875 -0.8125 -0.875 -2.140625l0 -5.84375l-2.265625 0l0 -1.234375l2.265625 0l0 -2.21875l1.5625 -0.1875l0 2.40625l3.421875 0l-0.21875 1.234375l-3.203125 0l0 5.828125q0 0.84375 0.4375 1.265625q0.453125 0.40625 1.453125 0.40625q1.0 0 1.875 -0.46875l0.625 1.0625zm4.9437256 -7.96875q0.578125 -0.75 1.40625 -1.15625q0.84375 -0.40625 1.734375 -0.40625q2.765625 0 2.765625 2.90625l0 7.125l-1.5625 0l0 -7.109375q0 -0.875 -0.421875 -1.265625q-0.40625 -0.40625 -1.296875 -0.40625q-0.765625 0 -1.484375 0.484375q-0.703125 0.484375 -1.140625 1.140625l0 7.15625l-1.578125 0l0 -13.765625l1.578125 -0.171875l0 5.46875zm10.865662 4.109375q0.0625 1.609375 0.84375 2.4375q0.796875 0.828125 2.015625 0.828125q0.734375 0 1.328125 -0.21875q0.609375 -0.21875 1.296875 -0.671875l0.734375 1.046875q-0.6875 0.546875 -1.578125 0.84375q-0.890625 0.296875 -1.78125 0.296875q-2.125 0 -3.3125 -1.390625q-1.1875 -1.390625 -1.1875 -3.71875q0 -1.46875 0.515625 -2.640625q0.53125 -1.171875 1.5 -1.828125q0.96875 -0.65625 2.265625 -0.65625q1.859375 0 2.921875 1.296875q1.078125 1.296875 1.078125 3.53125q0 0.421875 -0.03125 0.84375l-6.609375 0zm2.65625 -4.390625q-1.140625 0 -1.859375 0.8125q-0.703125 0.8125 -0.796875 2.375l5.125 0q-0.03125 -1.546875 -0.6875 -2.359375q-0.640625 -0.828125 -1.78125 -0.828125zm23.293762 -4.3125q1.203125 0 2.0625 0.3125q0.859375 0.3125 1.671875 0.9375l-0.90625 1.0625q-1.140625 -0.953125 -2.703125 -0.953125q-1.734375 0 -2.828125 1.265625q-1.09375 1.265625 -1.09375 4.0q0 2.71875 1.0625 4.0q1.0625 1.265625 2.828125 1.265625q0.984375 0 1.671875 -0.28125q0.6875 -0.28125 1.3125 -0.78125l0.84375 1.046875q-1.4375 1.390625 -3.84375 1.390625q-1.578125 0 -2.859375 -0.765625q-1.265625 -0.78125 -2.0 -2.265625q-0.71875 -1.5 -0.71875 -3.609375q0 -2.09375 0.734375 -3.59375q0.75 -1.5 2.0 -2.265625q1.265625 -0.765625 2.765625 -0.765625zm10.131226 3.03125q2.046875 0 3.125 1.375q1.09375 1.359375 1.09375 3.734375q0 2.3125 -1.109375 3.71875q-1.109375 1.40625 -3.125 1.40625q-2.03125 0 -3.140625 -1.359375q-1.09375 -1.375 -1.09375 -3.75q0 -2.328125 1.109375 -3.71875q1.109375 -1.40625 3.140625 -1.40625zm0 1.28125q-1.28125 0 -1.921875 0.953125q-0.625 0.953125 -0.625 2.890625q0 1.9375 0.625 2.890625q0.625 0.9375 1.90625 0.9375q1.296875 0 1.921875 -0.9375q0.625 -0.953125 0.625 -2.90625q0 -1.9375 -0.625 -2.875q-0.625 -0.953125 -1.90625 -0.953125zm12.084412 8.75l-1.8125 0l-3.5625 -9.828125l1.671875 0l2.84375 8.40625l2.796875 -8.40625l1.640625 0l-3.578125 9.828125zm7.8031006 -4.359375q0.0625 1.609375 0.84375 2.4375q0.796875 0.828125 2.015625 0.828125q0.734375 0 1.328125 -0.21875q0.609375 -0.21875 1.296875 -0.671875l0.734375 1.046875q-0.6875 0.546875 -1.578125 0.84375q-0.890625 0.296875 -1.78125 0.296875q-2.125 0 -3.3125 -1.390625q-1.1875 -1.390625 -1.1875 -3.71875q0 -1.46875 0.515625 -2.640625q0.53125 -1.171875 1.5 -1.828125q0.96875 -0.65625 2.265625 -0.65625q1.859375 0 2.921875 1.296875q1.078125 1.296875 1.078125 3.53125q0 0.421875 -0.03125 0.84375l-6.609375 0zm2.65625 -4.390625q-1.140625 0 -1.859375 0.8125q-0.703125 0.8125 -0.796875 2.375l5.125 0q-0.03125 -1.546875 -0.6875 -2.359375q-0.640625 -0.828125 -1.78125 -0.828125zm7.2875366 -1.078125l1.34375 0l0.140625 1.375q0.578125 -0.75 1.453125 -1.15625q0.890625 -0.421875 1.78125 -0.421875q2.765625 0 2.765625 2.90625l0 7.125l-1.5625 0l0 -5.96875q0 -1.109375 -0.125 -1.6875q-0.125 -0.578125 -0.484375 -0.84375q-0.34375 -0.28125 -1.078125 -0.28125q-0.796875 0 -1.515625 0.484375q-0.703125 0.484375 -1.140625 1.15625l0 7.140625l-1.578125 0l0 -9.828125zm18.256226 7.6875q0 0.578125 0.1875 0.84375q0.1875 0.265625 0.609375 0.40625l-0.390625 1.109375q-1.4375 -0.1875 -1.796875 -1.390625q-0.515625 0.671875 -1.3125 1.03125q-0.796875 0.34375 -1.765625 0.34375q-1.46875 0 -2.328125 -0.8125q-0.84375 -0.828125 -0.84375 -2.203125q0 -1.515625 1.1875 -2.328125q1.1875 -0.828125 3.40625 -0.828125l1.453125 0l0 -0.796875q0 -1.046875 -0.59375 -1.5q-0.59375 -0.46875 -1.734375 -0.46875q-1.125 0 -2.5625 0.5l-0.421875 -1.1875q1.734375 -0.609375 3.234375 -0.609375q1.78125 0 2.71875 0.84375q0.953125 0.828125 0.953125 2.328125l0 4.71875zm-4.078125 1.171875q0.734375 0 1.390625 -0.375q0.671875 -0.375 1.09375 -1.03125l0 -2.515625l-1.421875 0q-1.5625 0 -2.25 0.53125q-0.6875 0.515625 -0.6875 1.53125q0 1.859375 1.875 1.859375zm8.209412 -8.859375l1.34375 0l0.140625 1.375q0.578125 -0.75 1.453125 -1.15625q0.890625 -0.421875 1.78125 -0.421875q2.765625 0 2.765625 2.90625l0 7.125l-1.5625 0l0 -5.96875q0 -1.109375 -0.125 -1.6875q-0.125 -0.578125 -0.484375 -0.84375q-0.34375 -0.28125 -1.078125 -0.28125q-0.796875 0 -1.515625 0.484375q-0.703125 0.484375 -1.140625 1.15625l0 7.140625l-1.578125 0l0 -9.828125zm19.02185 9.328125q-0.515625 0.328125 -1.234375 0.515625q-0.703125 0.1875 -1.421875 0.1875q-1.546875 0 -2.421875 -0.8125q-0.875 -0.8125 -0.875 -2.140625l0 -5.84375l-2.265625 0l0 -1.234375l2.265625 0l0 -2.21875l1.5625 -0.1875l0 2.40625l3.421875 0l-0.21875 1.234375l-3.203125 0l0 5.828125q0 0.84375 0.4375 1.265625q0.453125 0.40625 1.453125 0.40625q1.0 0 1.875 -0.46875l0.625 1.0625z" fill-rule="nonzero"/><path fill="#434343" d="m524.45795 189.42975q0 1.125 -0.5625 1.96875q-0.546875 0.84375 -1.625 1.328125q-1.0625 0.46875 -2.515625 0.46875q-1.390625 0 -2.546875 -0.421875q-1.140625 -0.421875 -1.96875 -1.203125l0.96875 -1.09375q0.71875 0.671875 1.578125 1.03125q0.875 0.34375 1.984375 0.34375q1.28125 0 2.140625 -0.609375q0.859375 -0.625 0.859375 -1.78125q0 -0.640625 -0.25 -1.0625q-0.25 -0.4375 -0.859375 -0.765625q-0.59375 -0.34375 -1.703125 -0.671875q-2.078125 -0.609375 -3.109375 -1.4375q-1.03125 -0.828125 -1.03125 -2.265625q0 -0.953125 0.515625 -1.71875q0.53125 -0.765625 1.484375 -1.1875q0.953125 -0.421875 2.171875 -0.421875q1.265625 0 2.265625 0.375q1.0 0.375 1.828125 1.109375l-0.96875 1.03125q-1.328125 -1.15625 -3.078125 -1.15625q-1.109375 0 -1.84375 0.484375q-0.734375 0.484375 -0.734375 1.421875q0 0.5625 0.296875 0.953125q0.3125 0.390625 1.0 0.734375q0.6875 0.328125 1.9375 0.6875q1.8125 0.515625 2.78125 1.359375q0.984375 0.84375 0.984375 2.5zm10.100037 1.421875q0 0.578125 0.1875 0.84375q0.1875 0.265625 0.609375 0.40625l-0.390625 1.109375q-1.4375 -0.1875 -1.796875 -1.390625q-0.515625 0.671875 -1.3125 1.03125q-0.796875 0.34375 -1.765625 0.34375q-1.46875 0 -2.328125 -0.8125q-0.84375 -0.828125 -0.84375 -2.203125q0 -1.515625 1.1875 -2.328125q1.1875 -0.828125 3.40625 -0.828125l1.453125 0l0 -0.796875q0 -1.046875 -0.59375 -1.5q-0.59375 -0.46875 -1.734375 -0.46875q-1.125 0 -2.5625 0.5l-0.421875 -1.1875q1.734375 -0.609375 3.234375 -0.609375q1.78125 0 2.71875 0.84375q0.953125 0.828125 0.953125 2.328125l0 4.71875zm-4.078125 1.171875q0.734375 0 1.390625 -0.375q0.671875 -0.375 1.09375 -1.03125l0 -2.515625l-1.421875 0q-1.5625 0 -2.25 0.53125q-0.6875 0.515625 -0.6875 1.53125q0 1.859375 1.875 1.859375zm12.678101 -0.171875q1.28125 0 2.546875 -0.859375l0.75 1.03125q-0.609375 0.546875 -1.53125 0.859375q-0.90625 0.3125 -1.765625 0.3125q-2.1875 0 -3.40625 -1.359375q-1.21875 -1.375 -1.21875 -3.71875q0 -1.46875 0.546875 -2.640625q0.546875 -1.171875 1.59375 -1.84375q1.046875 -0.671875 2.484375 -0.671875q1.90625 0 3.28125 1.15625l-0.765625 1.015625q-1.28125 -0.859375 -2.53125 -0.859375q-1.328125 0 -2.125 0.984375q-0.796875 0.984375 -0.796875 2.859375q0 1.890625 0.796875 2.8125q0.796875 0.921875 2.140625 0.921875zm13.365662 -8.890625q0.609375 0 1.390625 0.203125l-0.234375 3.328125l-1.265625 0l0 -2.09375l-0.09375 0q-2.265625 0 -3.21875 3.234375l0 4.140625l2.0 0l0 1.21875l-5.125 0l0 -1.21875l1.546875 0l0 -7.40625l-1.546875 0l0 -1.203125l2.734375 0l0.296875 2.328125q0.59375 -1.265625 1.421875 -1.890625q0.828125 -0.640625 2.09375 -0.640625zm5.8031006 5.671875q0.0625 1.609375 0.84375 2.4375q0.796875 0.828125 2.015625 0.828125q0.734375 0 1.328125 -0.21875q0.609375 -0.21875 1.296875 -0.671875l0.734375 1.046875q-0.6875 0.546875 -1.578125 0.84375q-0.890625 0.296875 -1.78125 0.296875q-2.125 0 -3.3125 -1.390625q-1.1875 -1.390625 -1.1875 -3.71875q0 -1.46875 0.515625 -2.640625q0.53125 -1.171875 1.5 -1.828125q0.96875 -0.65625 2.265625 -0.65625q1.859375 0 2.921875 1.296875q1.078125 1.296875 1.078125 3.53125q0 0.421875 -0.03125 0.84375l-6.609375 0zm2.65625 -4.390625q-1.140625 0 -1.859375 0.8125q-0.703125 0.8125 -0.796875 2.375l5.125 0q-0.03125 -1.546875 -0.6875 -2.359375q-0.640625 -0.828125 -1.78125 -0.828125zm14.756287 -5.03125l0 13.78125l-1.375 0l-0.15625 -1.28125q-0.546875 0.734375 -1.25 1.109375q-0.703125 0.375 -1.53125 0.375q-1.859375 0 -2.8125 -1.359375q-0.9375 -1.359375 -0.9375 -3.75q0 -1.46875 0.46875 -2.640625q0.46875 -1.171875 1.328125 -1.828125q0.875 -0.65625 2.046875 -0.65625q1.625 0 2.65625 1.171875l0 -5.109375l1.5625 0.1875zm-3.8125 5.015625q-1.21875 0 -1.890625 0.96875q-0.65625 0.96875 -0.65625 2.890625q0 1.90625 0.59375 2.890625q0.609375 0.96875 1.765625 0.96875q1.40625 0 2.4375 -1.5625l0 -4.890625q-0.421875 -0.609375 -1.0 -0.9375q-0.578125 -0.328125 -1.25 -0.328125zm19.403137 -4.09375l1.609375 0l0 11.421875l5.875 0l-0.203125 1.4375l-7.28125 0l0 -12.859375zm14.256226 -1.5625q0.53125 0 0.84375 0.3125q0.3125 0.296875 0.3125 0.78125q0 0.5 -0.3125 0.8125q-0.3125 0.296875 -0.84375 0.296875q-0.5 0 -0.8125 -0.296875q-0.296875 -0.3125 -0.296875 -0.8125q0 -0.484375 0.296875 -0.78125q0.3125 -0.3125 0.8125 -0.3125zm1.25 13.171875l2.765625 0l0 1.25l-7.359375 0l0 -1.25l3.03125 0l0 -7.328125l-2.9375 0l0 -1.25l4.5 0l0 8.578125zm6.2094116 -8.578125l1.34375 0l0.140625 1.375q0.578125 -0.75 1.453125 -1.15625q0.890625 -0.421875 1.78125 -0.421875q2.765625 0 2.765625 2.90625l0 7.125l-1.5625 0l0 -5.96875q0 -1.109375 -0.125 -1.6875q-0.125 -0.578125 -0.484375 -0.84375q-0.34375 -0.28125 -1.078125 -0.28125q-0.796875 0 -1.515625 0.484375q-0.703125 0.484375 -1.140625 1.15625l0 7.140625l-1.578125 0l0 -9.828125zm19.662476 0.4375q-0.546875 0.1875 -1.203125 0.234375q-0.65625 0.046875 -1.65625 0.046875q1.703125 0.78125 1.703125 2.484375q0 1.5 -0.984375 2.421875q-0.984375 0.921875 -2.703125 0.921875q-0.875 0 -1.46875 -0.203125q-0.234375 0.15625 -0.375 0.421875q-0.140625 0.265625 -0.140625 0.53125q0 0.828125 1.3125 0.828125l1.765625 0q0.984375 0 1.765625 0.359375q0.796875 0.34375 1.25 0.953125q0.46875 0.609375 0.46875 1.359375q0 1.4375 -1.234375 2.203125q-1.21875 0.78125 -3.453125 0.78125q-2.28125 0 -3.21875 -0.71875q-0.921875 -0.703125 -0.921875 -2.25l1.421875 0q0 0.625 0.21875 0.984375q0.234375 0.359375 0.828125 0.53125q0.59375 0.1875 1.671875 0.1875q1.578125 0 2.328125 -0.421875q0.765625 -0.40625 0.765625 -1.203125q0 -0.671875 -0.625 -1.03125q-0.609375 -0.359375 -1.578125 -0.359375l-1.75 0q-1.21875 0 -1.859375 -0.53125q-0.625 -0.546875 -0.625 -1.34375q0 -0.46875 0.28125 -0.921875q0.28125 -0.453125 0.796875 -0.796875q-0.828125 -0.421875 -1.234375 -1.078125q-0.40625 -0.671875 -0.40625 -1.625q0 -0.984375 0.5 -1.75q0.5 -0.78125 1.375 -1.21875q0.890625 -0.4375 2.046875 -0.4375q1.6875 0 2.5625 -0.1875q0.875 -0.1875 1.921875 -0.640625l0.453125 1.46875zm-4.953125 0.515625q-1.140625 0 -1.71875 0.609375q-0.578125 0.59375 -0.578125 1.640625q0 1.046875 0.578125 1.671875q0.59375 0.625 1.75 0.625q1.046875 0 1.59375 -0.609375q0.5625 -0.609375 0.5625 -1.703125q0 -2.234375 -2.1875 -2.234375zm14.740662 6.734375q0 0.578125 0.1875 0.84375q0.1875 0.265625 0.609375 0.40625l-0.390625 1.109375q-1.4375 -0.1875 -1.796875 -1.390625q-0.515625 0.671875 -1.3125 1.03125q-0.796875 0.34375 -1.765625 0.34375q-1.46875 0 -2.328125 -0.8125q-0.84375 -0.828125 -0.84375 -2.203125q0 -1.515625 1.1875 -2.328125q1.1875 -0.828125 3.40625 -0.828125l1.453125 0l0 -0.796875q0 -1.046875 -0.59375 -1.5q-0.59375 -0.46875 -1.734375 -0.46875q-1.125 0 -2.5625 0.5l-0.421875 -1.1875q1.734375 -0.609375 3.234375 -0.609375q1.78125 0 2.71875 0.84375q0.953125 0.828125 0.953125 2.328125l0 4.71875zm-4.078125 1.171875q0.734375 0 1.390625 -0.375q0.671875 -0.375 1.09375 -1.03125l0 -2.515625l-1.421875 0q-1.5625 0 -2.25 0.53125q-0.6875 0.515625 -0.6875 1.53125q0 1.859375 1.875 1.859375zm14.693726 -9.0625q0.828125 0 1.359375 0.59375q0.546875 0.578125 0.546875 2.125l0 7.3125l-1.4375 0l0 -7.046875q0 -1.03125 -0.140625 -1.390625q-0.125 -0.375 -0.625 -0.375q-0.953125 0 -1.71875 1.1875l0 7.625l-1.453125 0l0 -7.046875q0 -1.03125 -0.140625 -1.390625q-0.125 -0.375 -0.625 -0.375q-0.953125 0 -1.71875 1.1875l0 7.625l-1.4375 0l0 -9.828125l1.21875 0l0.109375 1.15625q0.4375 -0.65625 0.9375 -1.0q0.5 -0.359375 1.1875 -0.359375q1.375 0 1.765625 1.296875q0.453125 -0.625 0.953125 -0.953125q0.5 -0.34375 1.21875 -0.34375zm24.059387 6.46875q0 1.125 -0.5625 1.96875q-0.546875 0.84375 -1.625 1.328125q-1.0625 0.46875 -2.515625 0.46875q-1.390625 0 -2.546875 -0.421875q-1.140625 -0.421875 -1.96875 -1.203125l0.96875 -1.09375q0.71875 0.671875 1.578125 1.03125q0.875 0.34375 1.984375 0.34375q1.28125 0 2.140625 -0.609375q0.859375 -0.625 0.859375 -1.78125q0 -0.640625 -0.25 -1.0625q-0.25 -0.4375 -0.859375 -0.765625q-0.59375 -0.34375 -1.703125 -0.671875q-2.078125 -0.609375 -3.109375 -1.4375q-1.03125 -0.828125 -1.03125 -2.265625q0 -0.953125 0.515625 -1.71875q0.53125 -0.765625 1.484375 -1.1875q0.953125 -0.421875 2.171875 -0.421875q1.265625 0 2.265625 0.375q1.0 0.375 1.828125 1.109375l-0.96875 1.03125q-1.328125 -1.15625 -3.078125 -1.15625q-1.109375 0 -1.84375 0.484375q-0.734375 0.484375 -0.734375 1.421875q0 0.5625 0.296875 0.953125q0.3125 0.390625 1.0 0.734375q0.6875 0.328125 1.9375 0.6875q1.8125 0.515625 2.78125 1.359375q0.984375 0.84375 0.984375 2.5zm10.865662 3.0625q-0.515625 0.328125 -1.234375 0.515625q-0.703125 0.1875 -1.421875 0.1875q-1.546875 0 -2.421875 -0.8125q-0.875 -0.8125 -0.875 -2.140625l0 -5.84375l-2.265625 0l0 -1.234375l2.265625 0l0 -2.21875l1.5625 -0.1875l0 2.40625l3.421875 0l-0.21875 1.234375l-3.203125 0l0 5.828125q0 0.84375 0.4375 1.265625q0.453125 0.40625 1.453125 0.40625q1.0 0 1.875 -0.46875l0.625 1.0625zm7.1156006 -9.53125q2.046875 0 3.125 1.375q1.09375 1.359375 1.09375 3.734375q0 2.3125 -1.109375 3.71875q-1.109375 1.40625 -3.125 1.40625q-2.03125 0 -3.140625 -1.359375q-1.09375 -1.375 -1.09375 -3.75q0 -2.328125 1.109375 -3.71875q1.109375 -1.40625 3.140625 -1.40625zm0 1.28125q-1.28125 0 -1.921875 0.953125q-0.625 0.953125 -0.625 2.890625q0 1.9375 0.625 2.890625q0.625 0.9375 1.90625 0.9375q1.296875 0 1.921875 -0.9375q0.625 -0.953125 0.625 -2.90625q0 -1.9375 -0.625 -2.875q-0.625 -0.953125 -1.90625 -0.953125zm7.4437866 -1.078125l1.34375 0l0.140625 1.375q0.578125 -0.75 1.453125 -1.15625q0.890625 -0.421875 1.78125 -0.421875q2.765625 0 2.765625 2.90625l0 7.125l-1.5625 0l0 -5.96875q0 -1.109375 -0.125 -1.6875q-0.125 -0.578125 -0.484375 -0.84375q-0.34375 -0.28125 -1.078125 -0.28125q-0.796875 0 -1.515625 0.484375q-0.703125 0.484375 -1.140625 1.15625l0 7.140625l-1.578125 0l0 -9.828125zm12.443726 5.46875q0.0625 1.609375 0.84375 2.4375q0.796875 0.828125 2.015625 0.828125q0.734375 0 1.328125 -0.21875q0.609375 -0.21875 1.296875 -0.671875l0.734375 1.046875q-0.6875 0.546875 -1.578125 0.84375q-0.890625 0.296875 -1.78125 0.296875q-2.125 0 -3.3125 -1.390625q-1.1875 -1.390625 -1.1875 -3.71875q0 -1.46875 0.515625 -2.640625q0.53125 -1.171875 1.5 -1.828125q0.96875 -0.65625 2.265625 -0.65625q1.859375 0 2.921875 1.296875q1.078125 1.296875 1.078125 3.53125q0 0.421875 -0.03125 0.84375l-6.609375 0zm2.65625 -4.390625q-1.140625 0 -1.859375 0.8125q-0.703125 0.8125 -0.796875 2.375l5.125 0q-0.03125 -1.546875 -0.6875 -2.359375q-0.640625 -0.828125 -1.78125 -0.828125z" fill-rule="nonzero"/><path fill="#434343" d="m522.45795 231.8985l-4.84375 0l0 6.09375l-1.625 0l0 -12.859375l1.625 0l0 5.4375l4.84375 0l0 -5.4375l1.625 0l0 12.859375l-1.625 0l0 -6.09375zm8.787537 -3.9375q2.046875 0 3.125 1.375q1.09375 1.359375 1.09375 3.734375q0 2.3125 -1.109375 3.71875q-1.109375 1.40625 -3.125 1.40625q-2.03125 0 -3.140625 -1.359375q-1.09375 -1.375 -1.09375 -3.75q0 -2.328125 1.109375 -3.71875q1.109375 -1.40625 3.140625 -1.40625zm0 1.28125q-1.28125 0 -1.921875 0.953125q-0.625 0.953125 -0.625 2.890625q0 1.9375 0.625 2.890625q0.625 0.9375 1.90625 0.9375q1.296875 0 1.921875 -0.9375q0.625 -0.953125 0.625 -2.90625q0 -1.9375 -0.625 -2.875q-0.625 -0.953125 -1.90625 -0.953125zm11.287476 6.328125q0 1.328125 1.625 1.328125q0.765625 0 1.640625 -0.34375l0.421875 1.140625q-0.9375 0.5 -2.34375 0.5q-1.3125 0 -2.109375 -0.71875q-0.796875 -0.734375 -0.796875 -1.984375l0 -10.03125l-3.015625 0l0 -1.25l4.578125 0l0 11.359375zm12.100037 2.484375q-0.578125 1.6875 -1.59375 2.6875q-1.0 1.015625 -2.8125 1.203125l-0.21875 -1.25q0.984375 -0.171875 1.5625 -0.515625q0.59375 -0.34375 0.921875 -0.859375q0.34375 -0.5 0.625 -1.328125l-0.515625 0l-3.421875 -9.828125l1.65625 0l2.828125 8.640625l2.765625 -8.640625l1.625 0l-3.421875 9.890625zm21.637512 0.140625q-2.359375 0 -3.6875 -1.6875q-1.328125 -1.6875 -1.328125 -4.953125q0 -2.125 0.734375 -3.609375q0.75 -1.5 1.984375 -2.25q1.234375 -0.765625 2.671875 -0.765625q1.203125 0 2.015625 0.34375q0.828125 0.328125 1.640625 1.078125l-0.96875 1.0q-0.59375 -0.53125 -1.25 -0.796875q-0.640625 -0.265625 -1.4375 -0.265625q-1.5625 0 -2.609375 1.25q-1.046875 1.25 -1.046875 4.015625q0 2.75 0.84375 4.015625q0.84375 1.265625 2.5625 1.265625q1.359375 0 2.453125 -0.609375l0 -3.90625l-2.53125 0l-0.171875 -1.359375l4.328125 0l0 6.109375q-0.984375 0.546875 -1.96875 0.84375q-0.96875 0.28125 -2.234375 0.28125zm13.834351 -10.234375q0.609375 0 1.390625 0.203125l-0.234375 3.328125l-1.265625 0l0 -2.09375l-0.09375 0q-2.265625 0 -3.21875 3.234375l0 4.140625l2.0 0l0 1.21875l-5.125 0l0 -1.21875l1.546875 0l0 -7.40625l-1.546875 0l0 -1.203125l2.734375 0l0.296875 2.328125q0.59375 -1.265625 1.421875 -1.890625q0.828125 -0.640625 2.09375 -0.640625zm11.615662 7.890625q0 0.578125 0.1875 0.84375q0.1875 0.265625 0.609375 0.40625l-0.390625 1.109375q-1.4375 -0.1875 -1.796875 -1.390625q-0.515625 0.671875 -1.3125 1.03125q-0.796875 0.34375 -1.765625 0.34375q-1.46875 0 -2.328125 -0.8125q-0.84375 -0.828125 -0.84375 -2.203125q0 -1.515625 1.1875 -2.328125q1.1875 -0.828125 3.40625 -0.828125l1.453125 0l0 -0.796875q0 -1.046875 -0.59375 -1.5q-0.59375 -0.46875 -1.734375 -0.46875q-1.125 0 -2.5625 0.5l-0.421875 -1.1875q1.734375 -0.609375 3.234375 -0.609375q1.78125 0 2.71875 0.84375q0.953125 0.828125 0.953125 2.328125l0 4.71875zm-4.078125 1.171875q0.734375 0 1.390625 -0.375q0.671875 -0.375 1.09375 -1.03125l0 -2.515625l-1.421875 0q-1.5625 0 -2.25 0.53125q-0.6875 0.515625 -0.6875 1.53125q0 1.859375 1.875 1.859375zm11.943726 -13.453125q0.53125 0 0.84375 0.3125q0.3125 0.296875 0.3125 0.78125q0 0.5 -0.3125 0.8125q-0.3125 0.296875 -0.84375 0.296875q-0.5 0 -0.8125 -0.296875q-0.296875 -0.3125 -0.296875 -0.8125q0 -0.484375 0.296875 -0.78125q0.3125 -0.3125 0.8125 -0.3125zm1.25 13.171875l2.765625 0l0 1.25l-7.359375 0l0 -1.25l3.03125 0l0 -7.328125l-2.9375 0l0 -1.25l4.5 0l0 8.578125zm10.053162 -1.171875q0 1.328125 1.625 1.328125q0.765625 0 1.640625 -0.34375l0.421875 1.140625q-0.9375 0.5 -2.34375 0.5q-1.3125 0 -2.109375 -0.71875q-0.796875 -0.734375 -0.796875 -1.984375l0 -10.03125l-3.015625 0l0 -1.25l4.578125 0l0 11.359375z" fill-rule="nonzero"/><path fill="#434343" d="m524.45795 279.42975q0 1.125 -0.5625 1.96875q-0.546875 0.84375 -1.625 1.328125q-1.0625 0.46875 -2.515625 0.46875q-1.390625 0 -2.546875 -0.421875q-1.140625 -0.421875 -1.96875 -1.203125l0.96875 -1.09375q0.71875 0.671875 1.578125 1.03125q0.875 0.34375 1.984375 0.34375q1.28125 0 2.140625 -0.609375q0.859375 -0.625 0.859375 -1.78125q0 -0.640625 -0.25 -1.0625q-0.25 -0.4375 -0.859375 -0.765625q-0.59375 -0.34375 -1.703125 -0.671875q-2.078125 -0.609375 -3.109375 -1.4375q-1.03125 -0.828125 -1.03125 -2.265625q0 -0.953125 0.515625 -1.71875q0.53125 -0.765625 1.484375 -1.1875q0.953125 -0.421875 2.171875 -0.421875q1.265625 0 2.265625 0.375q1.0 0.375 1.828125 1.109375l-0.96875 1.03125q-1.328125 -1.15625 -3.078125 -1.15625q-1.109375 0 -1.84375 0.484375q-0.734375 0.484375 -0.734375 1.421875q0 0.5625 0.296875 0.953125q0.3125 0.390625 1.0 0.734375q0.6875 0.328125 1.9375 0.6875q1.8125 0.515625 2.78125 1.359375q0.984375 0.84375 0.984375 2.5zm6.7875366 -6.46875q2.046875 0 3.125 1.375q1.09375 1.359375 1.09375 3.734375q0 2.3125 -1.109375 3.71875q-1.109375 1.40625 -3.125 1.40625q-2.03125 0 -3.140625 -1.359375q-1.09375 -1.375 -1.09375 -3.75q0 -2.328125 1.109375 -3.71875q1.109375 -1.40625 3.140625 -1.40625zm0 1.28125q-1.28125 0 -1.921875 0.953125q-0.625 0.953125 -0.625 2.890625q0 1.9375 0.625 2.890625q0.625 0.9375 1.90625 0.9375q1.296875 0 1.921875 -0.9375q0.625 -0.953125 0.625 -2.90625q0 -1.9375 -0.625 -2.875q-0.625 -0.953125 -1.90625 -0.953125zm13.928101 -1.28125q0.828125 0 1.359375 0.59375q0.546875 0.578125 0.546875 2.125l0 7.3125l-1.4375 0l0 -7.046875q0 -1.03125 -0.140625 -1.390625q-0.125 -0.375 -0.625 -0.375q-0.953125 0 -1.71875 1.1875l0 7.625l-1.453125 0l0 -7.046875q0 -1.03125 -0.140625 -1.390625q-0.125 -0.375 -0.625 -0.375q-0.953125 0 -1.71875 1.1875l0 7.625l-1.4375 0l0 -9.828125l1.21875 0l0.109375 1.15625q0.4375 -0.65625 0.9375 -1.0q0.5 -0.359375 1.1875 -0.359375q1.375 0 1.765625 1.296875q0.453125 -0.625 0.953125 -0.953125q0.5 -0.34375 1.21875 -0.34375zm5.9594116 5.671875q0.0625 1.609375 0.84375 2.4375q0.796875 0.828125 2.015625 0.828125q0.734375 0 1.328125 -0.21875q0.609375 -0.21875 1.296875 -0.671875l0.734375 1.046875q-0.6875 0.546875 -1.578125 0.84375q-0.890625 0.296875 -1.78125 0.296875q-2.125 0 -3.3125 -1.390625q-1.1875 -1.390625 -1.1875 -3.71875q0 -1.46875 0.515625 -2.640625q0.53125 -1.171875 1.5 -1.828125q0.96875 -0.65625 2.265625 -0.65625q1.859375 0 2.921875 1.296875q1.078125 1.296875 1.078125 3.53125q0 0.421875 -0.03125 0.84375l-6.609375 0zm2.65625 -4.390625q-1.140625 0 -1.859375 0.8125q-0.703125 0.8125 -0.796875 2.375l5.125 0q-0.03125 -1.546875 -0.6875 -2.359375q-0.640625 -0.828125 -1.78125 -0.828125zm19.621887 5.46875l-1.015625 3.28125l-1.609375 0l4.203125 -12.859375l2.046875 0l4.171875 12.859375l-1.671875 0l-1.03125 -3.28125l-5.09375 0zm4.671875 -1.34375l-2.109375 -6.84375l-2.125 6.84375l4.234375 0zm9.224976 2.203125q0 1.328125 1.625 1.328125q0.765625 0 1.640625 -0.34375l0.421875 1.140625q-0.9375 0.5 -2.34375 0.5q-1.3125 0 -2.109375 -0.71875q-0.796875 -0.734375 -0.796875 -1.984375l0 -10.03125l-3.015625 0l0 -1.25l4.578125 0l0 11.359375zm11.084412 -12.0q0.53125 0 0.84375 0.3125q0.3125 0.296875 0.3125 0.78125q0 0.5 -0.3125 0.8125q-0.3125 0.296875 -0.84375 0.296875q-0.5 0 -0.8125 -0.296875q-0.296875 -0.3125 -0.296875 -0.8125q0 -0.484375 0.296875 -0.78125q0.3125 -0.3125 0.8125 -0.3125zm1.25 13.171875l2.765625 0l0 1.25l-7.359375 0l0 -1.25l3.03125 0l0 -7.328125l-2.9375 0l0 -1.25l4.5 0l0 8.578125zm7.4593506 -3.109375q0.0625 1.609375 0.84375 2.4375q0.796875 0.828125 2.015625 0.828125q0.734375 0 1.328125 -0.21875q0.609375 -0.21875 1.296875 -0.671875l0.734375 1.046875q-0.6875 0.546875 -1.578125 0.84375q-0.890625 0.296875 -1.78125 0.296875q-2.125 0 -3.3125 -1.390625q-1.1875 -1.390625 -1.1875 -3.71875q0 -1.46875 0.515625 -2.640625q0.53125 -1.171875 1.5 -1.828125q0.96875 -0.65625 2.265625 -0.65625q1.859375 0 2.921875 1.296875q1.078125 1.296875 1.078125 3.53125q0 0.421875 -0.03125 0.84375l-6.609375 0zm2.65625 -4.390625q-1.140625 0 -1.859375 0.8125q-0.703125 0.8125 -0.796875 2.375l5.125 0q-0.03125 -1.546875 -0.6875 -2.359375q-0.640625 -0.828125 -1.78125 -0.828125zm7.2875366 -1.078125l1.34375 0l0.140625 1.375q0.578125 -0.75 1.453125 -1.15625q0.890625 -0.421875 1.78125 -0.421875q2.765625 0 2.765625 2.90625l0 7.125l-1.5625 0l0 -5.96875q0 -1.109375 -0.125 -1.6875q-0.125 -0.578125 -0.484375 -0.84375q-0.34375 -0.28125 -1.078125 -0.28125q-0.796875 0 -1.515625 0.484375q-0.703125 0.484375 -1.140625 1.15625l0 7.140625l-1.578125 0l0 -9.828125zm27.200012 -3.234375q1.203125 0 2.0625 0.3125q0.859375 0.3125 1.671875 0.9375l-0.90625 1.0625q-1.140625 -0.953125 -2.703125 -0.953125q-1.734375 0 -2.828125 1.265625q-1.09375 1.265625 -1.09375 4.0q0 2.71875 1.0625 4.0q1.0625 1.265625 2.828125 1.265625q0.984375 0 1.671875 -0.28125q0.6875 -0.28125 1.3125 -0.78125l0.84375 1.046875q-1.4375 1.390625 -3.84375 1.390625q-1.578125 0 -2.859375 -0.765625q-1.265625 -0.78125 -2.0 -2.265625q-0.71875 -1.5 -0.71875 -3.609375q0 -2.09375 0.734375 -3.59375q0.75 -1.5 2.0 -2.265625q1.265625 -0.765625 2.765625 -0.765625zm13.021851 3.03125q0.609375 0 1.390625 0.203125l-0.234375 3.328125l-1.265625 0l0 -2.09375l-0.09375 0q-2.265625 0 -3.21875 3.234375l0 4.140625l2.0 0l0 1.21875l-5.125 0l0 -1.21875l1.546875 0l0 -7.40625l-1.546875 0l0 -1.203125l2.734375 0l0.296875 2.328125q0.59375 -1.265625 1.421875 -1.890625q0.828125 -0.640625 2.09375 -0.640625zm9.303162 10.09375q-0.578125 1.6875 -1.59375 2.6875q-1.0 1.015625 -2.8125 1.203125l-0.21875 -1.25q0.984375 -0.171875 1.5625 -0.515625q0.59375 -0.34375 0.921875 -0.859375q0.34375 -0.5 0.625 -1.328125l-0.515625 0l-3.421875 -9.828125l1.65625 0l2.828125 8.640625l2.765625 -8.640625l1.625 0l-3.421875 9.890625zm9.803101 -1.140625q1.125 0 1.78125 -0.421875q0.65625 -0.4375 0.65625 -1.15625q0 -0.484375 -0.171875 -0.78125q-0.171875 -0.3125 -0.671875 -0.5625q-0.5 -0.25 -1.53125 -0.515625q-1.71875 -0.421875 -2.546875 -1.03125q-0.8125 -0.609375 -0.8125 -1.796875q0 -1.234375 1.015625 -1.953125q1.03125 -0.734375 2.71875 -0.734375q2.046875 0 3.578125 1.078125l-0.703125 1.078125q-0.625 -0.421875 -1.296875 -0.65625q-0.671875 -0.234375 -1.546875 -0.234375q-2.125 0 -2.125 1.28125q0 0.453125 0.234375 0.734375q0.234375 0.28125 0.765625 0.5q0.53125 0.203125 1.59375 0.5q1.609375 0.4375 2.390625 1.09375q0.796875 0.65625 0.796875 1.9375q0 1.46875 -1.203125 2.203125q-1.1875 0.71875 -2.921875 0.71875q-2.3125 0 -3.84375 -1.328125l0.875 -1.015625q0.609375 0.484375 1.375 0.78125q0.765625 0.28125 1.59375 0.28125zm15.662537 0.578125q-0.515625 0.328125 -1.234375 0.515625q-0.703125 0.1875 -1.421875 0.1875q-1.546875 0 -2.421875 -0.8125q-0.875 -0.8125 -0.875 -2.140625l0 -5.84375l-2.265625 0l0 -1.234375l2.265625 0l0 -2.21875l1.5625 -0.1875l0 2.40625l3.421875 0l-0.21875 1.234375l-3.203125 0l0 5.828125q0 0.84375 0.4375 1.265625q0.453125 0.40625 1.453125 0.40625q1.0 0 1.875 -0.46875l0.625 1.0625zm10.428101 -1.640625q0 0.578125 0.1875 0.84375q0.1875 0.265625 0.609375 0.40625l-0.390625 1.109375q-1.4375 -0.1875 -1.796875 -1.390625q-0.515625 0.671875 -1.3125 1.03125q-0.796875 0.34375 -1.765625 0.34375q-1.46875 0 -2.328125 -0.8125q-0.84375 -0.828125 -0.84375 -2.203125q0 -1.515625 1.1875 -2.328125q1.1875 -0.828125 3.40625 -0.828125l1.453125 0l0 -0.796875q0 -1.046875 -0.59375 -1.5q-0.59375 -0.46875 -1.734375 -0.46875q-1.125 0 -2.5625 0.5l-0.421875 -1.1875q1.734375 -0.609375 3.234375 -0.609375q1.78125 0 2.71875 0.84375q0.953125 0.828125 0.953125 2.328125l0 4.71875zm-4.078125 1.171875q0.734375 0 1.390625 -0.375q0.671875 -0.375 1.09375 -1.03125l0 -2.515625l-1.421875 0q-1.5625 0 -2.25 0.53125q-0.6875 0.515625 -0.6875 1.53125q0 1.859375 1.875 1.859375zm12.053162 -1.453125q0 1.328125 1.625 1.328125q0.765625 0 1.640625 -0.34375l0.421875 1.140625q-0.9375 0.5 -2.34375 0.5q-1.3125 0 -2.109375 -0.71875q-0.796875 -0.734375 -0.796875 -1.984375l0 -10.03125l-3.015625 0l0 -1.25l4.578125 0l0 11.359375zm26.700012 -1.140625q0 1.125 -0.5625 1.96875q-0.546875 0.84375 -1.625 1.328125q-1.0625 0.46875 -2.515625 0.46875q-1.390625 0 -2.546875 -0.421875q-1.140625 -0.421875 -1.96875 -1.203125l0.96875 -1.09375q0.71875 0.671875 1.578125 1.03125q0.875 0.34375 1.984375 0.34375q1.28125 0 2.140625 -0.609375q0.859375 -0.625 0.859375 -1.78125q0 -0.640625 -0.25 -1.0625q-0.25 -0.4375 -0.859375 -0.765625q-0.59375 -0.34375 -1.703125 -0.671875q-2.078125 -0.609375 -3.109375 -1.4375q-1.03125 -0.828125 -1.03125 -2.265625q0 -0.953125 0.515625 -1.71875q0.53125 -0.765625 1.484375 -1.1875q0.953125 -0.421875 2.171875 -0.421875q1.265625 0 2.265625 0.375q1.0 0.375 1.828125 1.109375l-0.96875 1.03125q-1.328125 -1.15625 -3.078125 -1.15625q-1.109375 0 -1.84375 0.484375q-0.734375 0.484375 -0.734375 1.421875q0 0.5625 0.296875 0.953125q0.3125 0.390625 1.0 0.734375q0.6875 0.328125 1.9375 0.6875q1.8125 0.515625 2.78125 1.359375q0.984375 0.84375 0.984375 2.5zm4.7249756 3.5625l-1.5625 0l0 -13.78125l1.5625 -0.1875l0 13.96875zm2.140625 -5.390625l4.921875 5.390625l-2.0625 0l-4.828125 -5.375l4.359375 -4.453125l2.015625 0l-4.40625 4.4375zm8.943787 2.53125q0 0.953125 0.390625 1.390625q0.40625 0.4375 1.265625 0.4375q0.78125 0 1.5 -0.4375q0.734375 -0.453125 1.171875 -1.125l0 -7.234375l1.5625 0l0 9.828125l-1.34375 0l-0.125 -1.328125q-0.578125 0.734375 -1.4375 1.140625q-0.84375 0.390625 -1.71875 0.390625q-1.40625 0 -2.125 -0.734375q-0.71875 -0.75 -0.71875 -2.15625l0 -7.140625l1.578125 0l0 6.96875zm13.459351 0.4375q0 1.328125 1.625 1.328125q0.765625 0 1.640625 -0.34375l0.421875 1.140625q-0.9375 0.5 -2.34375 0.5q-1.3125 0 -2.109375 -0.71875q-0.796875 -0.734375 -0.796875 -1.984375l0 -10.03125l-3.015625 0l0 -1.25l4.578125 0l0 11.359375zm11.193787 0q0 1.328125 1.625 1.328125q0.765625 0 1.640625 -0.34375l0.421875 1.140625q-0.9375 0.5 -2.34375 0.5q-1.3125 0 -2.109375 -0.71875q-0.796875 -0.734375 -0.796875 -1.984375l0 -10.03125l-3.015625 0l0 -1.25l4.578125 0l0 11.359375z" fill-rule="nonzero"/></g><path fill="#434343" d="m461.84778 131.85301l18.440948 0l0 -2.13385l4.2677 4.2677155l-4.2677 4.2677155l0 -2.1338654l-18.440948 0z" fill-rule="evenodd"/></g></svg>